STARTFONT 2.1
FONT -FontForge-Comic Neue-Bold-R-Normal--48-460-75-75-P-216-ISO10646-1
SIZE 46 75 75
FONTBOUNDINGBOX 69 57 -21 -11
COMMENT "Generated by fontforge, http://fontforge.sourceforge.net"
COMMENT "Copyright 2014 The Comic Neue Project Authors (https://github.com/crozynski/comicneue)"
STARTPROPERTIES 39
FOUNDRY "FontForge"
FAMILY_NAME "Comic Neue"
WEIGHT_NAME "Bold"
SLANT "R"
SETWIDTH_NAME "Normal"
ADD_STYLE_NAME ""
PIXEL_SIZE 48
POINT_SIZE 460
RESOLUTION_X 75
RESOLUTION_Y 75
SPACING "P"
AVERAGE_WIDTH 216
CHARSET_REGISTRY "ISO10646"
CHARSET_ENCODING "1"
FONTNAME_REGISTRY ""
CHARSET_COLLECTIONS "ISO8859-2 ISO10646-1"
FONT_NAME "ComicNeue-Bold"
FACE_NAME "Comic Neue Bold"
COPYRIGHT "Copyright 2014 The Comic Neue Project Authors (https://github.com/crozynski/comicneue)"
FONT_VERSION "2.003"
FONT_ASCENT 38
FONT_DESCENT 10
UNDERLINE_POSITION -5
UNDERLINE_THICKNESS 3
X_HEIGHT 23
CAP_HEIGHT 32
RAW_ASCENT 800
RAW_DESCENT 200
NORM_SPACE 17
RELATIVE_WEIGHT 70
RELATIVE_SETWIDTH 50
SUPERSCRIPT_X 0
SUPERSCRIPT_Y 16
SUPERSCRIPT_SIZE 28
SUBSCRIPT_X 0
SUBSCRIPT_Y 3
SUBSCRIPT_SIZE 28
AVG_LOWERCASE_WIDTH 222
AVG_UPPERCASE_WIDTH 290
ENDPROPERTIES
CHARS 319
STARTCHAR nonmarkingreturn
ENCODING 13
SWIDTH 600 0
DWIDTH 29 0
BBX 1 1 0 0
BITMAP
00
ENDCHAR
STARTCHAR space
ENCODING 32
SWIDTH 356 0
DWIDTH 17 0
BBX 1 1 0 0
BITMAP
00
ENDCHAR
STARTCHAR exclam
ENCODING 33
SWIDTH 261 0
DWIDTH 13 0
BBX 5 33 4 0
BITMAP
70
F8
F8
F8
F8
F8
F8
F8
F8
F8
F8
F8
F8
F8
F8
F8
F8
F8
F8
F8
F8
F8
F8
F8
70
00
00
70
F8
F8
F8
F0
70
ENDCHAR
STARTCHAR quotedbl
ENCODING 34
SWIDTH 325 0
DWIDTH 16 0
BBX 12 11 2 21
BITMAP
70E0
F1E0
F9F0
F9F0
F9F0
F9F0
F9F0
F9F0
F9F0
F1F0
70E0
ENDCHAR
STARTCHAR numbersign
ENCODING 35
SWIDTH 711 0
DWIDTH 34 0
BBX 30 32 2 0
BITMAP
00070380
000783C0
000F87C0
000F87C0
000F07C0
001F0F80
001F0F80
001E0F80
1FFFFFF8
3FFFFFFC
3FFFFFFC
1FFFFFF8
007C3E00
007C3E00
007C3E00
00783E00
00F83C00
00F87C00
00F87C00
00F87C00
FFFFFFF0
03E1F000
03E1F000
03C1F000
07C1E000
07C3E000
07C3E000
07C3E000
0783E000
0F83C000
0783C000
07018000
ENDCHAR
STARTCHAR dollar
ENCODING 36
SWIDTH 602 0
DWIDTH 29 0
BBX 23 39 2 -4
BITMAP
001C00
001E00
003E00
003F00
01FFE0
07FFF8
0FFFFC
1FFFFC
1F3E7E
3E3E3E
3E3E1E
3C3E1E
3C3E0C
3E3E00
3F3E00
1FFE00
1FFE00
0FFF00
03FFC0
01FFF0
003FF8
003FFC
003EFC
003E7E
003E3E
703E1E
F83E1E
F83E1E
FC3E3E
7E3C7E
7F3CFC
3FFFF8
1FFFF0
0FFFE0
03FFC0
007E00
003C00
003C00
001C00
ENDCHAR
STARTCHAR percent
ENCODING 37
SWIDTH 681 0
DWIDTH 33 0
BBX 28 33 2 0
BITMAP
07C00700
1FF00F00
3FF81F00
7FF81F00
7EFC3F00
F87C3E00
F83C7C00
F83C7C00
F87CF800
7EFCF800
7FF9F000
3FF9F000
1FF3E000
07C3E000
0007C000
000FC000
000F8000
001F0000
001F0000
003E1F00
003E7FC0
007CFFE0
007DFFF0
00F9FBF0
00F9E1F0
01F3E0F0
03F3E0F0
03E1E1F0
07C1FBF0
07C1FFF0
0780FFE0
07807FC0
07001F00
ENDCHAR
STARTCHAR ampersand
ENCODING 38
SWIDTH 625 0
DWIDTH 30 0
BBX 26 32 2 0
BITMAP
007C0000
01FF0000
03FF8000
07FFC000
07EFC000
0F83E000
0F81E000
0F81E000
0F83E000
0F83E000
07C7C000
07FFC000
03FF8000
01FF0000
07FE0000
0FFC0000
1FFE0000
3FBF1E00
7F1F9E00
7C0FFE00
7C07FE00
F803FE00
F803FC00
F801FC00
F800FC00
7C01FE00
7E03FF00
3F9FFF00
3FFFDF80
1FFF8FC0
07FF07C0
01F80380
ENDCHAR
STARTCHAR quotesingle
ENCODING 39
SWIDTH 206 0
DWIDTH 10 0
BBX 4 11 3 21
BITMAP
70
F0
F0
F0
F0
F0
F0
F0
F0
F0
70
ENDCHAR
STARTCHAR parenleft
ENCODING 40
SWIDTH 357 0
DWIDTH 17 0
BBX 12 42 3 -5
BITMAP
0070
00F0
01F0
03F0
07E0
07C0
0F80
1F80
1F00
3E00
3E00
7C00
7C00
7C00
7800
F800
F800
F800
F800
F800
F000
F000
F800
F800
F800
F800
F800
7800
7C00
7C00
3C00
3E00
3E00
1F00
1F80
0F80
0FC0
07E0
03F0
03F0
01F0
00E0
ENDCHAR
STARTCHAR parenright
ENCODING 41
SWIDTH 357 0
DWIDTH 17 0
BBX 12 42 2 -5
BITMAP
6000
F000
F800
FC00
7E00
3F00
1F00
0F80
0F80
07C0
07C0
03E0
03E0
03E0
01F0
01F0
01F0
01F0
00F0
00F0
00F0
00F0
00F0
01F0
01F0
01F0
01F0
01E0
03E0
03E0
03E0
07C0
07C0
0F80
0F80
1F00
3F00
7E00
7C00
FC00
F800
7000
ENDCHAR
STARTCHAR asterisk
ENCODING 42
SWIDTH 379 0
DWIDTH 18 0
BBX 14 13 2 20
BITMAP
0380
0780
0780
7798
FBFC
FFFC
7FFC
0780
1FE0
3EF0
3CF8
3C78
3870
ENDCHAR
STARTCHAR plus
ENCODING 43
SWIDTH 440 0
DWIDTH 21 0
BBX 17 16 2 3
BITMAP
01C000
03E000
03E000
03E000
03E000
03E000
7FFF80
FFFF80
FFFF80
7FFF00
03E000
03E000
03E000
03E000
03E000
01C000
ENDCHAR
STARTCHAR comma
ENCODING 44
SWIDTH 191 0
DWIDTH 9 0
BBX 6 10 1 -4
BITMAP
38
7C
7C
7C
7C
7C
78
F8
F0
70
ENDCHAR
STARTCHAR hyphen
ENCODING 45
SWIDTH 409 0
DWIDTH 20 0
BBX 15 4 2 10
BITMAP
7FFE
FFFE
FFFE
7FFE
ENDCHAR
STARTCHAR period
ENCODING 46
SWIDTH 181 0
DWIDTH 9 0
BBX 6 6 1 0
BITMAP
38
78
FC
FC
78
70
ENDCHAR
STARTCHAR slash
ENCODING 47
SWIDTH 438 0
DWIDTH 21 0
BBX 19 39 1 -6
BITMAP
0001C0
0001E0
0003E0
0003C0
0007C0
0007C0
000780
000F80
000F00
001F00
001E00
001E00
003E00
003C00
007C00
007800
00F800
00F800
00F000
01F000
01E000
03E000
03C000
03C000
07C000
078000
0F8000
0F0000
1F0000
1F0000
1E0000
3E0000
3C0000
7C0000
780000
780000
F80000
F00000
700000
ENDCHAR
STARTCHAR zero
ENCODING 48
SWIDTH 572 0
DWIDTH 27 0
BBX 23 32 2 0
BITMAP
007E00
01FF80
03FFC0
07FFE0
0FF7F0
1F81F8
1F00F8
3E007C
3E007C
7C003C
7C003E
7C003E
78003E
F8001E
F8001E
F8001E
F8001E
F8001E
F8003E
F8003E
78003E
78003C
7C007C
7C007C
3E00F8
3E01F8
1F03F0
1FEFE0
0FFFE0
07FF80
03FF00
00FC00
ENDCHAR
STARTCHAR one
ENCODING 49
SWIDTH 393 0
DWIDTH 19 0
BBX 14 32 3 0
BITMAP
0380
07C0
0FC0
1FC0
1FC0
3FC0
7FC0
FFC0
FFC0
F7C0
67C0
07C0
07C0
07C0
07C0
07C0
07C0
07C0
07C0
07C0
07C0
07C0
07C0
07C0
07C0
07C0
07C0
07C0
FFF8
FFFC
FFFC
7FF8
ENDCHAR
STARTCHAR two
ENCODING 50
SWIDTH 498 0
DWIDTH 24 0
BBX 20 32 2 0
BITMAP
01FC00
07FF00
1FFF80
3FFFC0
7F9FE0
FE03E0
F803E0
7001F0
2001F0
0001F0
0003E0
0003E0
0007E0
001FC0
003FC0
007F80
01FF00
03FC00
07F800
0FF000
1FC000
3F8000
3F0000
7E0000
7C0000
7C0000
780000
F80000
FFFFE0
FFFFF0
FFFFF0
FFFFE0
ENDCHAR
STARTCHAR three
ENCODING 51
SWIDTH 493 0
DWIDTH 24 0
BBX 20 32 1 0
BITMAP
03F800
0FFF00
3FFF80
3FFFC0
7F9FE0
3C03E0
1001E0
0001E0
0001E0
0003E0
0007E0
001FC0
00FFC0
01FF80
01FF80
01FFC0
003FE0
0007E0
0003F0
0001F0
0001F0
0001F0
0001F0
7001F0
F801F0
F803F0
FC07E0
7F9FE0
3FFFC0
1FFF80
0FFF00
01F800
ENDCHAR
STARTCHAR four
ENCODING 52
SWIDTH 469 0
DWIDTH 23 0
BBX 20 32 1 0
BITMAP
000300
000780
000F80
000F80
001F80
003F80
003F80
007F80
00FF80
00FF80
01FF80
01F780
03E780
07E780
07C780
0FC780
0F8780
1F0780
3F0780
3E0780
7FFFE0
7FFFF0
FFFFF0
7FFFE0
000780
000780
000780
000780
000780
000780
000780
000300
ENDCHAR
STARTCHAR five
ENCODING 53
SWIDTH 531 0
DWIDTH 25 0
BBX 21 32 2 0
BITMAP
1FFFE0
1FFFF0
3FFFF0
3FFFE0
3E0000
3E0000
3E0000
3E0000
3EFC00
3FFF00
3FFFC0
3FFFE0
7FCFE0
7E03F0
3C01F0
3800F8
0000F8
0000F8
0000F8
0000F8
0000F8
0000F8
0000F8
7000F0
F801F0
F803F0
FC07E0
7F9FC0
3FFFC0
1FFF00
0FFE00
01F800
ENDCHAR
STARTCHAR six
ENCODING 54
SWIDTH 523 0
DWIDTH 25 0
BBX 21 32 2 0
BITMAP
000E00
003F00
007F00
00FF00
03FC00
03F000
07E000
0FC000
1F8000
1F0000
3EFE00
3FFF80
3FFFC0
7FFFE0
7FCFF0
7E01F0
7C00F0
7800F8
F800F8
F800F8
F800F8
F800F8
7800F8
7800F8
7C01F0
7C01F0
3E03E0
3FCFE0
1FFFC0
0FFF80
07FF00
01FC00
ENDCHAR
STARTCHAR seven
ENCODING 55
SWIDTH 450 0
DWIDTH 22 0
BBX 20 32 1 0
BITMAP
7FFFE0
FFFFF0
FFFFF0
FFFFF0
0003E0
0003E0
0007C0
0007C0
000F80
000F80
001F00
001F00
003E00
003E00
007C00
007C00
00F800
00F800
01F000
01F000
03E000
03E000
07C000
07C000
0F8000
0F8000
1F8000
1F0000
3F0000
3E0000
3E0000
1C0000
ENDCHAR
STARTCHAR eight
ENCODING 56
SWIDTH 512 0
DWIDTH 25 0
BBX 20 32 2 0
BITMAP
01FC00
07FF00
0FFF80
1FFFC0
1FCFE0
3E03E0
3C01E0
3C01E0
7C01E0
3C03E0
3E03E0
3F0FE0
3FFFC0
1FFF80
0FFF00
0FFF80
1FFFC0
3FDFE0
7F07E0
7E03F0
FC01F0
F801F0
F800F0
F800F0
F801F0
F801F0
7C03E0
7F9FE0
3FFFC0
1FFF80
0FFF00
03F800
ENDCHAR
STARTCHAR nine
ENCODING 57
SWIDTH 523 0
DWIDTH 25 0
BBX 21 32 2 0
BITMAP
01FC00
07FF00
0FFF80
1FFFC0
3FDFE0
3E03E0
7C01F0
7C01F0
7800F0
F800F8
F800F8
F800F8
F800F8
F800F8
7800F8
7C01F0
7E07F0
3FFFF0
1FFFF0
0FFFF0
07FFE0
0007E0
0007C0
000FC0
001F80
003F00
00FE00
03FC00
07F800
07F000
07C000
038000
ENDCHAR
STARTCHAR colon
ENCODING 58
SWIDTH 207 0
DWIDTH 10 0
BBX 7 22 1 0
BITMAP
1C
3E
3E
3E
3E
1C
00
00
00
00
00
00
00
00
00
00
38
78
FC
FC
78
70
ENDCHAR
STARTCHAR semicolon
ENCODING 59
SWIDTH 223 0
DWIDTH 11 0
BBX 8 26 1 -4
BITMAP
0E
1F
1F
3F
1E
1C
00
00
00
00
00
00
00
00
00
00
38
7C
7C
7C
7C
7C
78
F8
F0
70
ENDCHAR
STARTCHAR less
ENCODING 60
SWIDTH 543 0
DWIDTH 26 0
BBX 19 24 4 0
BITMAP
0001C0
0003E0
000FE0
001FE0
007FC0
00FF00
03FE00
07F800
1FF000
3FC000
FF8000
FE0000
FE0000
FF0000
7FC000
1FE000
0FF800
03FC00
01FF00
007F80
003FC0
000FC0
0007C0
000180
ENDCHAR
STARTCHAR equal
ENCODING 61
SWIDTH 465 0
DWIDTH 22 0
BBX 17 13 3 5
BITMAP
FFFF00
FFFF80
FFFF80
FFFF00
000000
000000
000000
000000
000000
FFFF00
FFFF80
FFFF80
FFFF00
ENDCHAR
STARTCHAR greater
ENCODING 62
SWIDTH 543 0
DWIDTH 26 0
BBX 19 24 3 0
BITMAP
700000
F80000
FE0000
FF0000
7FC000
1FE000
0FF800
03FC00
01FF00
007F80
003FE0
000FE0
000FE0
001FE0
007FC0
00FF00
03FE00
07F800
1FF000
3FC000
7F8000
7E0000
7C0000
300000
ENDCHAR
STARTCHAR question
ENCODING 63
SWIDTH 499 0
DWIDTH 24 0
BBX 20 33 1 0
BITMAP
03F800
0FFE00
3FFF80
7FFFC0
FF3FC0
FC07E0
F803E0
7001F0
0001F0
0001F0
0001F0
0001F0
0003F0
0003E0
0007E0
000FC0
001FC0
003F00
007E00
00FC00
03F800
07F000
07E000
07C000
078000
000000
000000
0E0000
1F0000
1F0000
1F0000
1F0000
0E0000
ENDCHAR
STARTCHAR at
ENCODING 64
SWIDTH 849 0
DWIDTH 41 0
BBX 33 34 4 -5
BITMAP
001FFC0000
007FFF8000
01FFFFC000
03FFFFE000
07F80FF000
0FE001F800
1F8000FC00
3F00007E00
3E03E03E00
7C0FF81F00
7C1FFC1F00
F83FFE0F00
F87F7C0F80
F87C1C0F80
F0F81C0F80
F0F83E0F80
F0F83E0F80
F0F87C0F80
F0F8FC0F00
F0F9FE1F00
F0FFFE3F00
F87FFFFE00
F83FFFFE00
7C1F8FFC00
7C0003F000
7E00000000
3F00000000
1F80008000
1FE003E000
0FFF3FE000
03FFFFE000
01FFFFC000
007FFF8000
000FFC0000
ENDCHAR
STARTCHAR A
ENCODING 65
SWIDTH 552 0
DWIDTH 27 0
BBX 26 33 0 0
BITMAP
00070000
000F0000
001F8000
001F8000
001F8000
003FC000
003FC000
007FC000
007FE000
007FE000
00FBE000
00F9F000
01F9F000
01F1F000
01F0F800
03E0F800
03E0F800
07E3FC00
07FFFC00
07FFFC00
3FFFFE00
7FFFFE00
7FF83E00
7F801F00
1F001F00
3E001F80
3E000F80
3E000F80
7C000FC0
7C0007C0
F80007C0
780007C0
70000380
ENDCHAR
STARTCHAR B
ENCODING 66
SWIDTH 611 0
DWIDTH 29 0
BBX 24 33 4 0
BITMAP
7FFC00
FFFF80
FFFFC0
FFFFE0
F01FF0
F003F0
F001F8
F000F8
F000F8
F000F8
F000F8
F001F8
F001F0
F00FF0
FFFFE0
FFFFF0
FFFFF8
FFFFFC
F001FE
F0007E
F0003E
F0001F
F0001F
F0001F
F0003E
F0003E
F000FE
F003FC
F3FFF8
FFFFF0
FFFFC0
FFFE00
FFC000
ENDCHAR
STARTCHAR C
ENCODING 67
SWIDTH 601 0
DWIDTH 29 0
BBX 26 33 2 0
BITMAP
000FC000
007FF600
00FFFF00
01FFFF00
03F8FF00
07E01F00
0FC00F00
1F800F00
1F000E00
3E000000
3E000000
7C000000
7C000000
78000000
F8000000
F8000000
F8000000
F8000000
F8000000
F8000000
F8000000
F8000000
F8000000
7C000000
7C000380
7E0007C0
3F000FC0
1F803F80
1FF9FF80
0FFFFF00
03FFFC00
01FFF800
003FC000
ENDCHAR
STARTCHAR D
ENCODING 68
SWIDTH 623 0
DWIDTH 30 0
BBX 24 33 4 0
BITMAP
7F0000
FFF000
FFFE00
FFFF00
FFFFC0
F3FFE0
F01FF0
F007F8
F001FC
F000FC
F0007E
F0003E
F0003E
F0003F
F0001F
F0001F
F0001F
F0001F
F0001F
F0001F
F0001F
F0001F
F0003E
F0003E
F0007E
F0007C
F001FC
F007F8
FC7FF0
FFFFE0
FFFF80
FFFF00
1FF000
ENDCHAR
STARTCHAR E
ENCODING 69
SWIDTH 593 0
DWIDTH 28 0
BBX 24 33 4 0
BITMAP
7FFFFE
FFFFFE
FFFFFF
FFFFFE
F00000
F00000
F00000
F00000
F00000
F00000
F00000
F00000
F00000
F00000
FFFFF0
FFFFF8
FFFFF8
FFFFF8
F00000
F00000
F00000
F00000
F00000
F00000
F00000
F00000
F00000
F00000
F00000
FFFFFE
FFFFFE
FFFFFE
7FFFFE
ENDCHAR
STARTCHAR F
ENCODING 70
SWIDTH 581 0
DWIDTH 28 0
BBX 24 33 4 0
BITMAP
7FFFFE
FFFFFE
FFFFFF
FFFFFE
F00000
F00000
F00000
F00000
F00000
F00000
F00000
F00000
F00000
F00000
FFFFE0
FFFFF0
FFFFE0
FFFFE0
F00000
F00000
F00000
F00000
F00000
F00000
F00000
F00000
F00000
F00000
F00000
F00000
F00000
F00000
600000
ENDCHAR
STARTCHAR G
ENCODING 71
SWIDTH 706 0
DWIDTH 34 0
BBX 30 33 2 0
BITMAP
000FE000
007FFC00
01FFFE00
03FFFF80
07FCFFC0
0FE00FC0
1F8007E0
1F0003F0
3F0001F0
3E0001F0
7C0000F0
7C000060
FC000000
F8000000
F8000000
F8000000
F8000000
F8000000
F8007FF8
F800FFFC
F801FFFC
F801FFFC
7C00E1F8
7C0001F0
3E0003F0
3F0007E0
1F800FE0
1FC01FC0
0FFDFF80
07FFFF00
03FFFE00
00FFF800
001FC000
ENDCHAR
STARTCHAR H
ENCODING 72
SWIDTH 714 0
DWIDTH 34 0
BBX 27 33 4 0
BITMAP
E00001C0
F00003E0
F00003E0
F00003E0
F00003E0
F00003E0
F00003E0
F00003E0
F00003E0
F00003E0
F00003E0
F00003E0
F00003E0
F0007FE0
F07FFFE0
FFFFFFE0
FFFFFFE0
FFFFFFE0
FFFC03E0
FE0003E0
F00003E0
F00003E0
F00003E0
F00003E0
F00003E0
F00003E0
F00003E0
F00003E0
F00003E0
F00003E0
F00003E0
F00003E0
E00001C0
ENDCHAR
STARTCHAR I
ENCODING 73
SWIDTH 405 0
DWIDTH 19 0
BBX 16 33 2 0
BITMAP
FFFE
FFFF
FFFF
FFFE
07C0
07C0
07C0
07C0
07C0
07C0
07C0
07C0
07C0
07C0
07C0
07C0
07C0
07C0
07C0
07C0
07C0
07C0
07C0
07C0
07C0
07C0
07C0
07C0
07C0
FFFE
FFFF
FFFF
FFFE
ENDCHAR
STARTCHAR J
ENCODING 74
SWIDTH 471 0
DWIDTH 23 0
BBX 20 32 1 0
BITMAP
01FFE0
03FFF0
03FFF0
01FFF0
0007C0
0007C0
0007C0
0007C0
0007C0
0007C0
0007C0
0007C0
0007C0
0007C0
0007C0
0007C0
0007C0
0007C0
0007C0
0007C0
0007C0
7007C0
F807C0
F807C0
F807C0
F807C0
FC0F80
7F3F80
7FFF00
3FFF00
1FFC00
07F000
ENDCHAR
STARTCHAR K
ENCODING 75
SWIDTH 563 0
DWIDTH 27 0
BBX 22 33 4 0
BITMAP
600030
F000F8
F001F8
F003F8
F007F0
F00FE0
F01FC0
F03F80
F0FF00
F1FC00
F3F800
F7F000
FFE000
FFC000
FF8000
FF0000
FC0000
FE0000
FF0000
FF8000
FFE000
FFF000
F7F800
F1FC00
F0FF00
F07F80
F01FC0
F00FF0
F007F8
F003FC
F000FC
F0007C
600038
ENDCHAR
STARTCHAR L
ENCODING 76
SWIDTH 513 0
DWIDTH 25 0
BBX 20 33 4 0
BITMAP
600000
F00000
F00000
F00000
F00000
F00000
F00000
F00000
F00000
F00000
F00000
F00000
F00000
F00000
F00000
F00000
F00000
F00000
F00000
F00000
F00000
F00000
F00000
F00000
F00000
F00000
F00000
FFFF80
FFFFE0
FFFFF0
FFFFF0
FFFFE0
FFF800
ENDCHAR
STARTCHAR M
ENCODING 77
SWIDTH 806 0
DWIDTH 39 0
BBX 36 33 1 0
BITMAP
01C0003800
01E0003C00
03E0007C00
03F0007C00
03F000FE00
03F000FE00
07F800FE00
07F801FE00
07F801FE00
07FC01FF00
07FC03FF00
0FFC03FF00
0FFC03EF00
0FBE07CF80
0FBE07CF80
0F3E07CF80
1F1F0F8F80
1F1F0F8780
1F1F1F87C0
1F0F9F07C0
3E0F9F07C0
3E0FBF03C0
3E07FE03E0
3E07FE03E0
3C07FC03E0
7C03FC03E0
7C03FC01E0
7C03F801F0
7C03F801F0
F801F801F0
F801F000F0
F801F000F0
7000E000E0
ENDCHAR
STARTCHAR N
ENCODING 78
SWIDTH 652 0
DWIDTH 31 0
BBX 24 33 4 0
BITMAP
60000E
F0001F
F8001F
FC001F
FC001F
FE001F
FF001F
FF001F
FF801F
FFC01F
FFC01F
F7E01F
F3F01F
F1F01F
F1F81F
F0FC1F
F07C1F
F07E1F
F03F1F
F01F1F
F01F9F
F00FDF
F007FF
F003FF
F003FF
F001FF
F000FF
F000FF
F0007F
F0003F
F0003F
F0001F
60000E
ENDCHAR
STARTCHAR O
ENCODING 79
SWIDTH 638 0
DWIDTH 31 0
BBX 27 33 2 0
BITMAP
001FC000
00FFF000
01FFF800
03FFFC00
07F9FE00
0FC07F00
1F801F80
1F000F80
3E000FC0
3E0007C0
7C0007C0
7C0007C0
780003E0
F80003E0
F80003E0
F80003E0
F80003E0
F80003E0
F80003C0
F80007C0
F80007C0
F80007C0
F8000F80
7C000F80
7C001F80
3E001F00
3F003E00
1F80FE00
1FF7FC00
0FFFF800
07FFF000
01FFC000
007F0000
ENDCHAR
STARTCHAR P
ENCODING 80
SWIDTH 553 0
DWIDTH 27 0
BBX 22 33 4 0
BITMAP
FFE000
FFFE00
FFFF80
FFFFE0
F1FFF0
F007F8
F001F8
F000FC
F0007C
F0007C
F0007C
F0007C
F0007C
F000FC
F001F8
F003F8
F00FF0
F3FFE0
FFFF80
FFFF00
FFF800
FF8000
F00000
F00000
F00000
F00000
F00000
F00000
F00000
F00000
F00000
F00000
600000
ENDCHAR
STARTCHAR Q
ENCODING 81
SWIDTH 695 0
DWIDTH 33 0
BBX 30 34 2 -1
BITMAP
000FE000
003FFC00
00FFFE00
03FFFF80
07FEFFC0
0FE01FC0
0FC007E0
1F8003F0
3F0003F0
3E0001F0
7E0000F8
7C0000F8
7C0000F8
F80000F8
F80000F8
F8000078
F80000F8
F80000F8
F80000F8
F80000F8
F80000F8
F80001F8
7C0181F0
7C03E3F0
7E03F7E0
3E03FFE0
3F01FFC0
1FC0FF80
0FF9FFC0
07FFFFF0
03FFFFF8
00FFF3FC
003F80F8
00000038
ENDCHAR
STARTCHAR R
ENCODING 82
SWIDTH 583 0
DWIDTH 28 0
BBX 23 33 4 0
BITMAP
FFF000
FFFE00
FFFFC0
FFFFE0
F1FFF0
F007F8
F001F8
F000FC
F0007C
F0007C
F0007C
F0007C
F0007C
F000FC
F001F8
F007F0
F07FF0
FFFFC0
FFFF80
FFFE00
FFFF00
FEFF80
F01FC0
F00FE0
F007F0
F003F8
F001F8
F000FC
F0007E
F0007E
F0003E
F0001E
E0000C
ENDCHAR
STARTCHAR S
ENCODING 83
SWIDTH 546 0
DWIDTH 26 0
BBX 24 33 1 0
BITMAP
007F80
03FFF0
07FFF8
0FFFFC
1FF3FE
3F007E
3E003E
3C001E
3C001E
3C000C
3E0000
3F0000
3FE000
1FF800
0FFF00
07FFC0
01FFF0
007FF8
000FFC
0001FE
00007E
00003E
20001E
F0001F
F8001E
F8003E
FC003E
7F00FC
3FE7FC
3FFFF8
0FFFF0
07FFC0
00FF00
ENDCHAR
STARTCHAR T
ENCODING 84
SWIDTH 524 0
DWIDTH 25 0
BBX 25 33 0 0
BITMAP
7FFFFF00
FFFFFF80
FFFFFF80
7FFFFF00
003E0000
003E0000
003E0000
003E0000
003E0000
003E0000
003E0000
003E0000
003E0000
003E0000
003E0000
003E0000
003E0000
003E0000
003E0000
003E0000
003E0000
003E0000
003E0000
003E0000
003E0000
003E0000
003E0000
003E0000
003E0000
003E0000
003E0000
003E0000
001C0000
ENDCHAR
STARTCHAR U
ENCODING 85
SWIDTH 669 0
DWIDTH 32 0
BBX 28 33 2 0
BITMAP
780001E0
780001E0
780001E0
780001E0
780001E0
780001F0
780001F0
780001F0
F80001F0
F80001F0
F80001F0
780001F0
780001F0
780001F0
780001F0
780001E0
780001E0
7C0003E0
7C0003E0
7C0003E0
7C0003E0
7C0003E0
3E0003E0
3E0007C0
3E0007C0
1F000FC0
1F801F80
0FC03F80
0FF9FF00
07FFFE00
03FFFC00
00FFF000
003FC000
ENDCHAR
STARTCHAR V
ENCODING 86
SWIDTH 538 0
DWIDTH 26 0
BBX 26 33 0 0
BITMAP
70000380
F8000780
F80007C0
7C000F80
7C000F80
7C001F80
3E001F00
3E001F00
3E003E00
1F003E00
1F003E00
1F007C00
0F807C00
0F80F800
0F80F800
07C0F800
07C1F000
07C1F000
03E3E000
03E3E000
03E3E000
01F7C000
01F7C000
01FFC000
00FF8000
00FF8000
00FF0000
007F0000
007F0000
007E0000
003E0000
003C0000
001C0000
ENDCHAR
STARTCHAR W
ENCODING 87
SWIDTH 847 0
DWIDTH 41 0
BBX 41 33 0 0
BITMAP
70001C000700
F8003C000F00
F8003E000F80
7C007E001F00
7C007E001F00
7C007F003F00
7C00FF003E00
3E00FF003E00
3E00FF007E00
3E01FF807C00
1F01FF807C00
1F01FF80F800
1F01FF80F800
0F83E7C0F800
0F83E7C1F000
0F83E7C1F000
0F87C3E3F000
07C7C3E3E000
07C7C3E3E000
07CF83E7E000
03EF81F7C000
03EF81F7C000
03FF01FF8000
01FF00FF8000
01FF00FF8000
01FE00FF0000
01FE00FF0000
00FE007F0000
00FC007E0000
00FC007E0000
007C007E0000
0078003C0000
003800380000
ENDCHAR
STARTCHAR X
ENCODING 88
SWIDTH 707 0
DWIDTH 34 0
BBX 29 33 2 0
BITMAP
38000070
7C0000F0
7E0001F8
3F0003F0
3F0007F0
1F8007E0
0FC00FC0
07E01F80
07E03F00
03F07E00
01F8FE00
00FCFC00
00FFF800
007FF000
003FE000
001FE000
001FC000
001FC000
003FE000
007FF000
00FDF800
01F9FC00
03F8FC00
03F07E00
07E03F00
0FC01F80
1F800FC0
3F000FC0
7F0007E0
7E0003F0
FC0001F0
F80000F0
700000E0
ENDCHAR
STARTCHAR Y
ENCODING 89
SWIDTH 582 0
DWIDTH 28 0
BBX 28 33 0 0
BITMAP
700000E0
F80001F0
F80001F0
FC0003F0
7C0003E0
3E0007E0
3F000FC0
1F000F80
1F801F80
0F801F00
0FC03F00
07E03E00
03E07C00
03F0FC00
01F0F800
01F9F800
00F9F000
00FFF000
007FE000
003FC000
003FC000
001F8000
001F8000
001F0000
003E0000
007E0000
007C0000
00FC0000
00F80000
01F00000
01F00000
01E00000
00C00000
ENDCHAR
STARTCHAR Z
ENCODING 90
SWIDTH 575 0
DWIDTH 28 0
BBX 26 33 1 0
BITMAP
7FFFFF80
7FFFFFC0
FFFFFFC0
7FFFFFC0
7FFFFF80
00001F80
00003F00
00007E00
0000FC00
0001F800
0001F800
0003F000
0007E000
000FC000
001FC000
001F8000
003F0000
007E0000
00FC0000
01FC0000
01F80000
03F00000
07E00000
0FE00000
0FC00000
1F800000
3F000000
7E000000
FE000000
FFFFFF80
FFFFFF80
FFFFFF80
FFFFFF00
ENDCHAR
STARTCHAR bracketleft
ENCODING 91
SWIDTH 335 0
DWIDTH 16 0
BBX 10 43 4 -6
BITMAP
FFC0
FFC0
FFC0
FFC0
F000
F000
F000
F000
F000
F000
F000
F000
F000
F000
F000
F000
F000
F000
F000
F000
F000
F000
F000
F000
F000
F000
F000
F000
F000
F000
F000
F000
F000
F000
F000
F000
F000
F000
F000
FF80
FFC0
FFC0
7F80
ENDCHAR
STARTCHAR backslash
ENCODING 92
SWIDTH 571 0
DWIDTH 27 0
BBX 20 32 3 0
BITMAP
700000
F80000
F80000
FC0000
7C0000
3E0000
3E0000
1F0000
1F8000
0F8000
0FC000
07C000
07E000
03E000
01F000
01F000
00F800
00FC00
007C00
007E00
003E00
001F00
001F00
000F80
000FC0
0007C0
0007E0
0003E0
0001F0
0001F0
0000F0
0000E0
ENDCHAR
STARTCHAR bracketright
ENCODING 93
SWIDTH 335 0
DWIDTH 16 0
BBX 10 43 2 -6
BITMAP
7FC0
FFC0
FFC0
7FC0
03C0
03C0
03C0
03C0
03C0
03C0
03C0
03C0
03C0
03C0
03C0
03C0
03C0
03C0
03C0
03C0
03C0
03C0
03C0
03C0
03C0
03C0
03C0
03C0
03C0
03C0
03C0
03C0
03C0
03C0
03C0
03C0
03C0
03C0
03C0
FFC0
FFC0
FFC0
7F80
ENDCHAR
STARTCHAR asciicircum
ENCODING 94
SWIDTH 526 0
DWIDTH 25 0
BBX 16 14 4 17
BITMAP
01C0
03E0
03E0
07F0
0FF0
0F78
1F78
1E7C
3E3C
7C3E
7C3E
F81F
781F
700E
ENDCHAR
STARTCHAR underscore
ENCODING 95
SWIDTH 516 0
DWIDTH 25 0
BBX 26 4 -1 -3
BITMAP
FFFFFF80
FFFFFFC0
FFFFFFC0
7FFFFF80
ENDCHAR
STARTCHAR grave
ENCODING 96
SWIDTH 205 0
DWIDTH 10 0
BBX 10 11 0 26
BITMAP
2000
7800
F800
FC00
FE00
7F00
3F80
1F80
0FC0
07C0
0380
ENDCHAR
STARTCHAR a
ENCODING 97
SWIDTH 508 0
DWIDTH 24 0
BBX 19 24 2 0
BITMAP
00FE00
03FFC0
07FFE0
0FFFE0
1FEFE0
3F03E0
3E03E0
7C03E0
7C03E0
F803E0
F803E0
F803E0
F803E0
F003E0
F803E0
F803E0
F803E0
F803E0
7C07E0
7F9FE0
3FFFE0
1FFFE0
0FFDE0
03F1C0
ENDCHAR
STARTCHAR b
ENCODING 98
SWIDTH 525 0
DWIDTH 25 0
BBX 20 32 3 0
BITMAP
700000
F80000
F80000
F80000
F80000
F80000
F80000
F80000
F8FE00
FBFF00
FFFFC0
FFFFC0
FFCFE0
FF03E0
FC01F0
FC01F0
F800F0
F800F0
F800F0
F800F0
F800F0
F800F0
F801F0
F801F0
F801F0
F803E0
F807E0
FF1FC0
FFFFC0
FFFF80
FFFE00
71F800
ENDCHAR
STARTCHAR c
ENCODING 99
SWIDTH 470 0
DWIDTH 23 0
BBX 20 24 2 0
BITMAP
00FC00
03FF00
07FF80
0FFFC0
1FDFC0
3F03E0
3E01C0
7C0000
7C0000
F80000
F80000
F80000
F00000
F00000
F00000
F80000
F800E0
7C01F0
7E03F0
3F9FE0
3FFFC0
1FFF80
07FF00
01FC00
ENDCHAR
STARTCHAR d
ENCODING 100
SWIDTH 522 0
DWIDTH 25 0
BBX 20 33 2 0
BITMAP
0000E0
0000F0
0001F0
0001F0
0001F0
0001F0
0001F0
0001F0
0001F0
01F9F0
07FFF0
1FFFF0
1FFFF0
3F9FF0
7E03F0
7C01F0
7801F0
F801F0
F801F0
F801F0
F001F0
F001F0
F001F0
F001F0
F801F0
F801F0
F803F0
7C07E0
7F3FE0
3FFFE0
1FFFE0
0FF9E0
07E1E0
ENDCHAR
STARTCHAR e
ENCODING 101
SWIDTH 491 0
DWIDTH 24 0
BBX 20 24 2 0
BITMAP
01FC00
07FF00
0FFFC0
1FFFC0
3FCFE0
3E03F0
7C01F0
7807F0
F80FE0
F83FC0
F0FF00
F3FC00
FFF800
FFE000
FF8000
FE0000
7C0000
7C0070
7E01F0
3FC7F0
1FFFF0
0FFFE0
03FF80
00FE00
ENDCHAR
STARTCHAR f
ENCODING 102
SWIDTH 321 0
DWIDTH 15 0
BBX 17 32 0 0
BITMAP
003F00
01FF80
03FF80
07FF00
07F800
07C000
0F8000
0F8000
7FFE00
FFFF00
FFFF00
FFFE00
0F8000
0F8000
0F8000
0F8000
0F8000
0F8000
0F8000
0F8000
0F8000
0F8000
0F8000
0F8000
0F8000
0F8000
0F8000
0F8000
0F8000
0F8000
0F8000
070000
ENDCHAR
STARTCHAR g
ENCODING 103
SWIDTH 548 0
DWIDTH 26 0
BBX 20 33 2 -8
BITMAP
0000E0
00FEF0
03FFF0
07FFF0
0FFFF0
1FE7F0
3F01F0
3E01F0
7C01F0
7C01F0
7801F0
F801F0
F801F0
F801F0
F801F0
F801F0
F801F0
7803F0
7C03F0
7E07F0
3FBFF0
1FFFF0
1FFFF0
07FDF0
01F9E0
0001E0
0003E0
0007E0
1F3FC0
3FFFC0
3FFF80
1FFE00
07F800
ENDCHAR
STARTCHAR h
ENCODING 104
SWIDTH 528 0
DWIDTH 25 0
BBX 19 32 3 0
BITMAP
700000
780000
F80000
F80000
F80000
F80000
F80000
F80000
F83E00
F8FF00
F9FF80
FBFFC0
FFF7C0
FFC3C0
FF83E0
FF03E0
FE01E0
FC01E0
FC01E0
F801E0
F801E0
F801E0
F801E0
F801E0
F801E0
F801E0
F801E0
F801E0
F801E0
F801E0
7801E0
7000C0
ENDCHAR
STARTCHAR i
ENCODING 105
SWIDTH 243 0
DWIDTH 12 0
BBX 5 32 3 0
BITMAP
30
78
78
78
78
30
00
00
30
78
78
78
78
78
78
78
78
F8
F8
F8
F8
F8
F8
F8
F8
F8
F8
F8
F8
F8
78
70
ENDCHAR
STARTCHAR j
ENCODING 106
SWIDTH 261 0
DWIDTH 13 0
BBX 13 41 -4 -8
BITMAP
0070
0078
0078
00F8
00F8
0070
0000
0000
0000
0070
00F8
00F8
00F8
00F8
00F8
00F8
00F8
00F8
00F8
00F8
00F8
00F8
00F8
00F8
00F8
00F8
00F8
00F8
00F8
00F8
00F8
00F8
00F8
60F8
F0F8
F8F8
FDF0
7FF0
3FF0
1FE0
0F80
ENDCHAR
STARTCHAR k
ENCODING 107
SWIDTH 487 0
DWIDTH 23 0
BBX 20 32 3 0
BITMAP
700000
F80000
F80000
F80000
F80000
F80000
F80000
F801C0
F803C0
F807C0
F80FC0
F81F80
F83F80
F87F00
F8FE00
F9FC00
FBF800
FFF000
FFF000
FFF800
FFF800
FEFC00
FC7E00
F83F00
F81F00
F81F80
F80FC0
F807E0
F803F0
F803F0
7801F0
7000E0
ENDCHAR
STARTCHAR l
ENCODING 108
SWIDTH 236 0
DWIDTH 11 0
BBX 5 32 3 0
BITMAP
70
F8
F8
F8
F8
F8
F8
F8
F8
F8
F8
F8
F8
F8
F8
F8
F8
F8
F8
F8
F8
F8
F8
F8
F8
F8
F8
F8
F8
F8
F8
70
ENDCHAR
STARTCHAR m
ENCODING 109
SWIDTH 796 0
DWIDTH 38 0
BBX 32 24 3 0
BITMAP
703E01F0
78FF87FC
F9FF8FFE
FBFFDFFE
FBF7DF3F
FF83FC1F
FF03F81F
FE03F80F
FE01F00F
FC01F00F
FC01E00F
F801E00F
F801E00F
F801E00F
F801E00F
F801E00F
F801E00F
F801E00F
F801E00F
F801E00F
F801E00F
F801E00F
F801E00F
7001C006
ENDCHAR
STARTCHAR n
ENCODING 110
SWIDTH 543 0
DWIDTH 26 0
BBX 20 24 3 0
BITMAP
703F00
F8FF80
F9FFC0
FBFFE0
FBF7E0
FFC1F0
FF81F0
FF01F0
FE01F0
FE01F0
FC00F0
FC00F0
F800F0
F800F0
F800F0
F800F0
F800F0
F800F0
F800F0
F800F0
F800F0
F800F0
F800F0
700060
ENDCHAR
STARTCHAR o
ENCODING 111
SWIDTH 517 0
DWIDTH 25 0
BBX 21 24 2 0
BITMAP
00FC00
03FF00
07FF80
1FFFC0
1FCFE0
3F03F0
7E01F0
7C01F0
F800F8
F800F8
F800F8
F800F8
F800F8
F800F8
F800F8
F801F0
F801F0
7C03E0
7E07E0
3FBFC0
3FFF80
1FFF00
07FE00
01F800
ENDCHAR
STARTCHAR p
ENCODING 112
SWIDTH 521 0
DWIDTH 25 0
BBX 20 32 3 -8
BITMAP
707E00
FBFF00
FFFF80
FFFFC0
FFEFE0
FE03E0
FC01F0
F801F0
F800F0
F800F0
F800F0
F800F0
F800F0
F800F0
F801F0
F801F0
F801E0
F803E0
F807E0
FF9FC0
FFFF80
FFFF80
FFFE00
F9F800
F80000
F80000
F80000
F80000
F80000
F80000
780000
700000
ENDCHAR
STARTCHAR q
ENCODING 113
SWIDTH 511 0
DWIDTH 25 0
BBX 19 33 2 -8
BITMAP
0000E0
007FE0
03FFE0
07FFE0
0FFFE0
1FE7E0
3F01E0
7E01E0
7C01E0
F801E0
F801E0
F801E0
F001E0
F001E0
F003E0
F003E0
F003E0
F803E0
7C03E0
7C07E0
3F9FE0
3FFFE0
1FFFE0
07FFE0
01FBE0
0003E0
0003E0
0003E0
0003E0
0003C0
0003C0
0003C0
0001C0
ENDCHAR
STARTCHAR r
ENCODING 114
SWIDTH 403 0
DWIDTH 19 0
BBX 16 24 3 0
BITMAP
707C
F9FE
FBFF
FFFF
FFDF
FF0F
FE0F
FC0E
FC00
F800
F800
F800
F800
F800
F800
F800
F800
F800
F800
F800
F800
F800
F800
7000
ENDCHAR
STARTCHAR s
ENCODING 115
SWIDTH 425 0
DWIDTH 20 0
BBX 18 24 1 0
BITMAP
03FC00
0FFF00
1FFF80
3FFF80
3F9FC0
3C07C0
7C07C0
3C07C0
3E0380
3F8000
1FF000
0FFE00
03FF00
007F80
000F80
7007C0
F807C0
F807C0
7C07C0
7F3F80
3FFF80
1FFF00
0FFE00
03F000
ENDCHAR
STARTCHAR t
ENCODING 116
SWIDTH 328 0
DWIDTH 16 0
BBX 17 32 -1 0
BITMAP
01C000
03E000
03E000
03E000
03E000
03E000
03E000
03E000
7FFF00
FFFF80
FFFF80
7FFF80
03E000
03E000
03E000
03E000
03E000
03E000
03E000
03E000
03E000
03E000
03E000
03E000
03E000
03E000
03E000
03E000
03E000
03E000
03E000
01C000
ENDCHAR
STARTCHAR u
ENCODING 117
SWIDTH 518 0
DWIDTH 25 0
BBX 19 24 3 0
BITMAP
7001C0
F803C0
F803E0
F803E0
F803E0
F803E0
F003E0
F003E0
F003E0
F003E0
F003E0
F003E0
F003E0
F003E0
F003E0
F003E0
F803E0
F807E0
F81FE0
7EFFE0
7FFFE0
3FFBE0
3FF3C0
0FC1C0
ENDCHAR
STARTCHAR v
ENCODING 118
SWIDTH 425 0
DWIDTH 20 0
BBX 20 24 0 0
BITMAP
7000E0
F000F0
F801F0
F801F0
7803E0
7C03E0
7C03E0
3E07C0
3E07C0
1E0F80
1F0F80
1F0F80
0F9F00
0F9F00
079E00
07FE00
07FE00
03FC00
03FC00
01F800
01F800
01F800
00F000
006000
ENDCHAR
STARTCHAR w
ENCODING 119
SWIDTH 620 0
DWIDTH 30 0
BBX 27 24 1 0
BITMAP
E00E01C0
F01E03E0
F01F03E0
F03F03E0
F83F07C0
F83F07C0
F87F87C0
787F8780
787F8F80
7CFF8F80
7CFFCF00
3DF7DF00
3DF3DF00
3DE3DE00
3FE3FE00
3FE3FE00
1FC1FC00
1FC1FC00
1FC1FC00
1F81F800
1F80F800
0F80F800
0F00F000
06007000
ENDCHAR
STARTCHAR x
ENCODING 120
SWIDTH 490 0
DWIDTH 24 0
BBX 23 24 0 0
BITMAP
38000C
3C001E
3E003E
3F007E
1F80FC
0F81F8
0FC3F0
07E7E0
03FFC0
01FF80
00FF00
00FE00
00FE00
01FF00
03FF80
07EFC0
0FC7E0
1F83F0
3F03F0
7E01F8
FC00FC
F8007C
F8003C
70001C
ENDCHAR
STARTCHAR y
ENCODING 121
SWIDTH 458 0
DWIDTH 22 0
BBX 22 33 0 -9
BITMAP
700038
F8003C
F8007C
FC007C
7C00F8
7E00F8
3E01F0
3F01F0
1F03E0
1F83E0
0F83C0
0FC7C0
07C780
07EF80
03EF80
03FF00
01FF00
01FE00
00FE00
00FC00
007C00
007800
00F800
00F000
01F000
01F000
03E000
03E000
07C000
07C000
078000
078000
070000
ENDCHAR
STARTCHAR z
ENCODING 122
SWIDTH 429 0
DWIDTH 21 0
BBX 20 24 0 0
BITMAP
3FFFE0
7FFFF0
7FFFF0
7FFFF0
0007E0
000FC0
001F80
001F80
003F00
007E00
00FC00
01FC00
01F800
03F000
07E000
0FC000
0FC000
1F8000
3F0000
7E0000
7FFFF0
FFFFF0
FFFFF0
7FFFE0
ENDCHAR
STARTCHAR braceleft
ENCODING 123
SWIDTH 382 0
DWIDTH 18 0
BBX 13 43 3 -6
BITMAP
0078
01F8
03F8
07F8
0FF0
0F80
0F00
0F00
0F00
0F00
0F00
0F00
0F00
0F00
0F00
0F00
0F00
1F00
3F00
7E00
FE00
FC00
FE00
3E00
1F00
1F00
0F00
0F00
0F00
0F00
0F00
0F00
0F00
0F00
0F00
0F00
0F00
0F80
0FF0
07F8
03F8
01F8
0078
ENDCHAR
STARTCHAR bar
ENCODING 124
SWIDTH 219 0
DWIDTH 11 0
BBX 4 47 3 -8
BITMAP
60
F0
F0
F0
F0
F0
F0
F0
F0
F0
F0
F0
F0
F0
F0
F0
F0
F0
F0
F0
F0
F0
F0
F0
F0
F0
F0
F0
F0
F0
F0
F0
F0
F0
F0
F0
F0
F0
F0
F0
F0
F0
F0
F0
F0
F0
60
ENDCHAR
STARTCHAR braceright
ENCODING 125
SWIDTH 382 0
DWIDTH 18 0
BBX 13 43 2 -6
BITMAP
7800
FE00
FF00
FF80
7F80
0FC0
07C0
07C0
07C0
07C0
07C0
07C0
07C0
07C0
07C0
07C0
07C0
07C0
07C0
03E0
03F8
01F8
01F8
03F8
03E0
07C0
07C0
07C0
07C0
07C0
07C0
07C0
07C0
07C0
07C0
07C0
07C0
0FC0
3F80
FF80
FF00
FE00
7000
ENDCHAR
STARTCHAR asciitilde
ENCODING 126
SWIDTH 606 0
DWIDTH 29 0
BBX 25 11 2 6
BITMAP
07C00000
0FF00700
1FF80F80
3FFC0F80
7EFC1F00
7C3E1F00
783F7E00
F81FFE00
780FFC00
2007F800
0003E000
ENDCHAR
STARTCHAR uni00A0
ENCODING 160
SWIDTH 356 0
DWIDTH 17 0
BBX 1 1 0 0
BITMAP
00
ENDCHAR
STARTCHAR exclamdown
ENCODING 161
SWIDTH 261 0
DWIDTH 13 0
BBX 5 33 4 -9
BITMAP
70
F8
F8
F8
F0
70
00
00
60
F0
F0
F0
F0
F0
F0
F0
F0
F0
F0
F0
F0
F0
F0
F0
F0
F0
F0
F0
F0
F0
F0
F0
60
ENDCHAR
STARTCHAR cent
ENCODING 162
SWIDTH 492 0
DWIDTH 24 0
BBX 20 32 2 0
BITMAP
007000
00F800
00F800
00F800
00FC00
03FF00
07FF80
0FFFC0
1FFFE0
3FF3E0
3EF1C0
7CF000
7CF000
78F000
F8F000
F8F000
F8F000
F8F000
F8F000
F8F000
F8F0E0
7CF1F0
7EF3F0
3FFFE0
1FFFC0
0FFF80
07FF00
00F800
00F000
00F000
01F000
00E000
ENDCHAR
STARTCHAR sterling
ENCODING 163
SWIDTH 658 0
DWIDTH 32 0
BBX 29 34 1 0
BITMAP
001FF800
007FFE00
00FFFF00
01FFFF00
03F81F80
03E00FC0
07C007C0
07C003C0
078003E0
078003E0
078001C0
07800000
07800000
07800000
07800000
FFFFF800
FFFFF800
FFFFF800
7FFFF000
03C00000
03E00000
03E00000
03E00000
03E00000
03E00000
03E00078
03FC00F8
07FE00F8
07FF80F8
0FFFF3F0
1FCFFFF0
1F03FFE0
1E00FFC0
1C003F00
ENDCHAR
STARTCHAR currency
ENCODING 164
SWIDTH 504 0
DWIDTH 24 0
BBX 20 21 2 2
BITMAP
700060
F000F0
F801F0
FFFFF0
7FFFE0
3FFFC0
1FFF80
1F0F80
3E07C0
3E03C0
3E03C0
3E03C0
3E07C0
3F07C0
1F9F80
3FFFC0
7FFFE0
FFFFF0
FDF9F0
F800F0
700060
ENDCHAR
STARTCHAR yen
ENCODING 165
SWIDTH 492 0
DWIDTH 24 0
BBX 21 32 1 0
BITMAP
700030
780078
F800F8
7C00F8
7C01F0
3E01F0
3E03E0
1F07E0
1F87C0
0F8FC0
0FCF80
07DF80
07FF00
03FE00
03FE00
1FFFC0
3FFFE0
3FFFE0
3FFFE0
00F800
00F800
00F800
3FFFE0
3FFFE0
3FFFE0
1FFFC0
00F800
00F800
00F800
00F800
00F800
007000
ENDCHAR
STARTCHAR brokenbar
ENCODING 166
SWIDTH 257 0
DWIDTH 12 0
BBX 5 40 4 -4
BITMAP
70
F0
F8
F8
F8
F8
F8
F8
F8
F8
F8
F8
F8
F8
F8
F0
70
00
00
00
00
00
00
70
F0
F8
F8
F8
F8
F8
F8
F8
F8
F8
F8
F8
F8
F8
F0
70
ENDCHAR
STARTCHAR section
ENCODING 167
SWIDTH 430 0
DWIDTH 21 0
BBX 18 30 1 0
BITMAP
07FC00
1FFF00
3FFF80
3FFF80
7E0FC0
7C07C0
7C07C0
7C0780
3F8300
3FF000
3FFC00
7FFF00
787F00
780F80
3C0780
3F83C0
1FF7C0
0FFFC0
03FF80
007F80
000F80
7007C0
F007C0
F807C0
FC0F80
7F3F80
3FFF00
1FFE00
0FFC00
03F000
ENDCHAR
STARTCHAR dieresis
ENCODING 168
SWIDTH 317 0
DWIDTH 15 0
BBX 15 6 0 29
BITMAP
383C
7C7E
FE7E
FE7E
FC7E
783C
ENDCHAR
STARTCHAR copyright
ENCODING 169
SWIDTH 610 0
DWIDTH 29 0
BBX 25 26 2 8
BITMAP
007F0000
01FFE000
07FFF000
0FC1F800
1F003C00
3C001E00
3C3E0F00
787F8F00
70FFC780
F1FFC780
F1F7C380
E3E00380
E3C00380
E3E08380
E1E3C380
F1FFE380
F1FFC780
70FFC780
787F0F00
3C000F00
3C001E00
1F003C00
0FC0F800
07FFF000
01FFE000
007F0000
ENDCHAR
STARTCHAR ordfeminine
ENCODING 170
SWIDTH 329 0
DWIDTH 16 0
BBX 13 16 1 15
BITMAP
07E0
0FF8
1FF8
3FF8
7C78
7C78
7878
F878
F878
F878
F878
7CF8
7FF8
3FF8
3FF8
0F38
ENDCHAR
STARTCHAR guillemotleft
ENCODING 171
SWIDTH 580 0
DWIDTH 28 0
BBX 24 18 2 3
BITMAP
00700E
00F81F
01F83F
03F87F
07F0FE
0FE1FC
3F87F8
7F0FE0
7E0FC0
FC1F80
7E0FE0
3F87F0
1FC3F8
0FE1FC
07F0FE
03F07E
01F03E
00E01C
ENDCHAR
STARTCHAR logicalnot
ENCODING 172
SWIDTH 466 0
DWIDTH 22 0
BBX 19 11 1 5
BITMAP
7FFFE0
FFFFE0
7FFFE0
7FFFE0
0001E0
0001E0
0001E0
0001E0
0001E0
0001E0
0000C0
ENDCHAR
STARTCHAR uni00AD
ENCODING 173
SWIDTH 409 0
DWIDTH 20 0
BBX 15 4 2 10
BITMAP
7FFE
FFFE
FFFE
7FFE
ENDCHAR
STARTCHAR registered
ENCODING 174
SWIDTH 610 0
DWIDTH 29 0
BBX 25 26 2 8
BITMAP
007F0000
01FFE000
07FFF000
0FC1F800
1F003C00
3C001E00
3C7F0F00
78FF8F00
70FFC780
F0F3C780
F0F1E380
E1F1E380
E1F3C380
E1FF8380
E1FF0380
F1FF8380
F1EF8780
71E78780
78C38F00
3C000F00
3C001E00
1F003C00
0FC0F800
07FFF000
01FFE000
007F0000
ENDCHAR
STARTCHAR macron
ENCODING 175
SWIDTH 280 0
DWIDTH 13 0
BBX 13 4 0 28
BITMAP
FFF8
FFF8
FFF8
7FF8
ENDCHAR
STARTCHAR degree
ENCODING 176
SWIDTH 269 0
DWIDTH 13 0
BBX 13 13 0 20
BITMAP
0F80
3FC0
7FE0
7FF0
FDF0
F0F0
F0F8
F0F8
FDF0
7FF0
7FE0
3FC0
0F80
ENDCHAR
STARTCHAR plusminus
ENCODING 177
SWIDTH 467 0
DWIDTH 22 0
BBX 16 22 3 0
BITMAP
0380
03C0
07C0
07C0
07C0
07C0
FFFE
FFFF
FFFF
FFFE
07C0
07C0
07C0
07C0
03C0
0380
0000
0000
7FFE
FFFE
FFFE
7FFC
ENDCHAR
STARTCHAR uni00B2
ENCODING 178
SWIDTH 295 0
DWIDTH 14 0
BBX 13 19 1 19
BITMAP
0F80
3FE0
7FE0
FFF0
F8F0
F0F0
00F0
03F0
07F0
0FE0
3FC0
3F00
7E00
7C00
F800
FFF0
FFF8
FFF8
FFF0
ENDCHAR
STARTCHAR uni00B3
ENCODING 179
SWIDTH 288 0
DWIDTH 14 0
BBX 12 19 1 19
BITMAP
1F00
7FC0
FFE0
FFE0
71F0
01F0
01E0
0FE0
1FC0
1FE0
0FF0
01F0
00F0
E0F0
F1F0
FFE0
FFE0
7FC0
1F00
ENDCHAR
STARTCHAR acute
ENCODING 180
SWIDTH 205 0
DWIDTH 10 0
BBX 10 11 0 26
BITMAP
0100
0780
0FC0
0FC0
1F80
3F80
7F00
FE00
FC00
F800
7000
ENDCHAR
STARTCHAR uni00B5
ENCODING 181
SWIDTH 526 0
DWIDTH 25 0
BBX 19 32 3 -8
BITMAP
3801C0
7801E0
7803E0
F803E0
F803E0
F803E0
F803E0
F803E0
F803E0
F803E0
F803E0
F803E0
F803E0
F803E0
F803E0
F803E0
F803E0
F807E0
FC0FE0
FE7FE0
7FFFE0
7FFFE0
7FFBE0
7FE1C0
780000
780000
7C0000
7C0000
7C0000
7C0000
3C0000
380000
ENDCHAR
STARTCHAR paragraph
ENCODING 182
SWIDTH 546 0
DWIDTH 26 0
BBX 22 41 1 -4
BITMAP
000200
001F80
00FF88
03FF9C
07FF3C
0FFE3C
1FFE3C
3FFE3C
7FFE3C
7FFE3C
7FFE3C
FFFE3C
FFFE3C
FFFE3C
FFFE3C
7FFE3C
7FFE3C
7FFE3C
3FFE3C
1FFE3C
0FFE3C
03FE3C
003E3C
003C3C
003C7C
003C7C
003C78
003C78
003C78
003C78
007C78
007878
0078F8
0078F0
0078F0
0078F0
00F8F0
00F0F0
00F1F0
00F1E0
00E0E0
ENDCHAR
STARTCHAR periodcentered
ENCODING 183
SWIDTH 198 0
DWIDTH 10 0
BBX 5 6 2 9
BITMAP
70
F8
F8
F8
F8
70
ENDCHAR
STARTCHAR cedilla
ENCODING 184
SWIDTH 184 0
DWIDTH 9 0
BBX 9 12 0 -10
BITMAP
3000
3000
3000
7800
7E00
7F00
0380
0380
E780
FF00
FF00
7C00
ENDCHAR
STARTCHAR uni00B9
ENCODING 185
SWIDTH 225 0
DWIDTH 11 0
BBX 9 19 1 19
BITMAP
0C00
1E00
3E00
7E00
FE00
FE00
FE00
7E00
1E00
1E00
1E00
1E00
1E00
1E00
1E00
7F80
FF80
FF80
7F80
ENDCHAR
STARTCHAR ordmasculine
ENCODING 186
SWIDTH 303 0
DWIDTH 15 0
BBX 14 16 0 15
BITMAP
07C0
1FE0
3FF0
7FF8
7CFC
F87C
F83C
F03C
F03C
F07C
F87C
F8F8
7FF8
3FF0
1FE0
0F80
ENDCHAR
STARTCHAR guillemotright
ENCODING 187
SWIDTH 579 0
DWIDTH 28 0
BBX 23 18 2 3
BITMAP
700E00
F81F00
FC1F80
FE1FC0
7F0FE0
3F87F0
1FC3FC
0FF1FE
03F07E
03F07E
07F0FE
0FE1FC
1FC3F8
3F87F0
7F0FE0
7E0FC0
7C0F80
700600
ENDCHAR
STARTCHAR onequarter
ENCODING 188
SWIDTH 709 0
DWIDTH 34 0
BBX 30 38 2 -5
BITMAP
000001C0
0E0001E0
1F0003E0
3F0003C0
7F0007C0
7F000F80
FF000F00
7F001F00
3F001E00
1F003E00
1F003C00
1F007C00
1E00F800
1E00F800
1E01F000
1E01E000
7F83E000
7FC3C000
FFC7C000
7F8780E0
000F81E0
001F01E0
001E03E0
003E07E0
003C07E0
007C0FE0
00781FE0
00F81EE0
00F03EE0
01F07CE0
01E078E0
03C0FFF8
01C0FFFC
00007FF8
000000E0
000000E0
000000E0
000000E0
ENDCHAR
STARTCHAR onehalf
ENCODING 189
SWIDTH 767 0
DWIDTH 37 0
BBX 32 38 2 -5
BITMAP
000001C0
0E0001E0
1F0003E0
3F0007C0
7F0007C0
7F000F80
FF000F00
7F001F00
3F001E00
1F003E00
1F003C00
1F007C00
1E00F800
1E00F000
1E01F000
1E01E000
7F83E000
7FC3C000
FFC7C000
7F8780F8
000F83FC
001F07FE
001E0FFF
003E0F8F
003C0F0F
007C000F
0078003F
00F8007E
00F001FE
01F003FC
03E007F0
03C007E0
01C00FC0
00000F80
00000FFF
00000FFF
00000FFF
00000FFF
ENDCHAR
STARTCHAR threequarters
ENCODING 190
SWIDTH 751 0
DWIDTH 36 0
BBX 32 38 2 -5
BITMAP
00000060
0F8000F0
3FE000F0
7FF001F0
7FF003E0
38F003E0
00F007C0
01F00780
07F00F80
0FE00F00
0FF01F00
07F01E00
00F83E00
00787C00
70787800
F8F8F800
7FF0F000
7FF1F000
3FE1E000
0F83E038
0003C038
0007C078
000F80F8
000F00F8
001F01F8
001E03F8
003E03F8
003C07B8
007C0FB8
00780F38
00F81E38
00F03FFE
00603FFF
00001FFE
00000038
00000038
00000038
00000038
ENDCHAR
STARTCHAR questiondown
ENCODING 191
SWIDTH 499 0
DWIDTH 24 0
BBX 20 32 3 -8
BITMAP
000700
000F00
001F80
001F80
000F00
000E00
000000
000000
001C00
003E00
007E00
01FC00
03F800
07F000
0FE000
1F8000
3F0000
3E0000
7C0000
7C0000
F80000
F80000
F80000
F80000
F800E0
7C01F0
7E03F0
7FCFF0
3FFFE0
1FFFC0
0FFF00
01FC00
ENDCHAR
STARTCHAR Agrave
ENCODING 192
SWIDTH 552 0
DWIDTH 27 0
BBX 26 45 0 0
BITMAP
00400000
01E00000
01F80000
01FC0000
01FE0000
00FF0000
007F8000
001F8000
000F8000
00038000
00000000
00000000
00070000
000F0000
001F8000
001F8000
001F8000
003FC000
003FC000
007FC000
007FE000
007FE000
00FBE000
00F9F000
01F9F000
01F1F000
01F0F800
03E0F800
03E0F800
07E3FC00
07FFFC00
07FFFC00
3FFFFE00
7FFFFE00
7FF83E00
7F801F00
1F001F00
3E001F80
3E000F80
3E000F80
7C000FC0
7C0007C0
F80007C0
780007C0
70000380
ENDCHAR
STARTCHAR Aacute
ENCODING 193
SWIDTH 552 0
DWIDTH 27 0
BBX 26 45 0 0
BITMAP
00002000
0000F000
0001F800
0003F800
0007F800
001FF000
001FC000
003F8000
003E0000
001C0000
00000000
00000000
00070000
000F0000
001F8000
001F8000
001F8000
003FC000
003FC000
007FC000
007FE000
007FE000
00FBE000
00F9F000
01F9F000
01F1F000
01F0F800
03E0F800
03E0F800
07E3FC00
07FFFC00
07FFFC00
3FFFFE00
7FFFFE00
7FF83E00
7F801F00
1F001F00
3E001F80
3E000F80
3E000F80
7C000FC0
7C0007C0
F80007C0
780007C0
70000380
ENDCHAR
STARTCHAR Acircumflex
ENCODING 194
SWIDTH 552 0
DWIDTH 27 0
BBX 26 44 0 0
BITMAP
00020000
000F0000
001F8000
003FC000
007FE000
00FFF000
01FFF800
03F8FC00
03E07800
01C03800
00000000
00070000
000F0000
001F8000
001F8000
001F8000
003FC000
003FC000
007FC000
007FE000
007FE000
00FBE000
00F9F000
01F9F000
01F1F000
01F0F800
03E0F800
03E0F800
07E3FC00
07FFFC00
07FFFC00
3FFFFE00
7FFFFE00
7FF83E00
7F801F00
1F001F00
3E001F80
3E000F80
3E000F80
7C000FC0
7C0007C0
F80007C0
780007C0
70000380
ENDCHAR
STARTCHAR Atilde
ENCODING 195
SWIDTH 552 0
DWIDTH 27 0
BBX 26 44 0 0
BITMAP
00000400
00780E00
01FC1E00
03FE1E00
03FF3C00
079FFC00
078FF800
0707F000
0703E000
00000000
00000000
00070000
000F0000
001F8000
001F8000
001F8000
003FC000
003FC000
007FC000
007FE000
007FE000
00FBE000
00F9F000
01F9F000
01F1F000
01F0F800
03E0F800
03E0F800
07E3FC00
07FFFC00
07FFFC00
3FFFFE00
7FFFFE00
7FF83E00
7F801F00
1F001F00
3E001F80
3E000F80
3E000F80
7C000FC0
7C0007C0
F80007C0
780007C0
70000380
ENDCHAR
STARTCHAR Adieresis
ENCODING 196
SWIDTH 552 0
DWIDTH 27 0
BBX 26 42 0 0
BITMAP
00E0F000
01F1F800
03F9F800
03F9F800
01F1F800
01E0F000
00000000
00000000
00000000
00070000
000F0000
001F8000
001F8000
001F8000
003FC000
003FC000
007FC000
007FE000
007FE000
00FBE000
00F9F000
01F9F000
01F1F000
01F0F800
03E0F800
03E0F800
07E3FC00
07FFFC00
07FFFC00
3FFFFE00
7FFFFE00
7FF83E00
7F801F00
1F001F00
3E001F80
3E000F80
3E000F80
7C000FC0
7C0007C0
F80007C0
780007C0
70000380
ENDCHAR
STARTCHAR Aring
ENCODING 197
SWIDTH 552 0
DWIDTH 27 0
BBX 26 45 0 0
BITMAP
001F8000
007FE000
007FE000
00FFF000
00F0F000
00E0F000
00FBF000
00FFE000
00FFE000
007FC000
001F0000
00000000
00070000
000F0000
001F8000
001F8000
001F8000
003FC000
003FC000
007FC000
007FE000
007FE000
00FBE000
00F9F000
01F9F000
01F1F000
01F0F800
03E0F800
03E0F800
07E3FC00
07FFFC00
07FFFC00
3FFFFE00
7FFFFE00
7FF83E00
7F801F00
1F001F00
3E001F80
3E000F80
3E000F80
7C000FC0
7C0007C0
F80007C0
780007C0
70000380
ENDCHAR
STARTCHAR AE
ENCODING 198
SWIDTH 1066 0
DWIDTH 51 0
BBX 43 33 3 0
BITMAP
000007FFFFE0
00000FFFFFE0
00001FFFFFE0
00003FFFFFE0
00003F000000
00007F000000
0000FF000000
0001FF000000
0001FF000000
0003FF000000
0007EF000000
0007CF000000
000FCF000000
001F8F000000
001F0F000000
003F3FFFFF80
007FFFFFFF80
01FFFFFFFF80
07FFFFFFFF00
0FFFFF000000
0FFE0F000000
07E00F000000
07E00F000000
0FC00F000000
0F800F000000
1F000F000000
3F000F000000
7E000F000000
7C000F000000
FC000FFFFFE0
F8000FFFFFE0
F0000FFFFFE0
E0000FFFFFE0
ENDCHAR
STARTCHAR Ccedilla
ENCODING 199
SWIDTH 601 0
DWIDTH 29 0
BBX 26 43 2 -10
BITMAP
000FC000
007FF600
00FFFF00
01FFFF00
03F8FF00
07E01F00
0FC00F00
1F800F00
1F000E00
3E000000
3E000000
7C000000
7C000000
78000000
F8000000
F8000000
F8000000
F8000000
F8000000
F8000000
F8000000
F8000000
F8000000
7C000000
7C000380
7E0007C0
3F000FC0
1F803F80
1FF9FF80
0FFFFF00
03FFFC00
01FFF800
003FC000
000E0000
000F0000
001FC000
001FE000
0000E000
0000E000
0018E000
003FE000
001FC000
000F8000
ENDCHAR
STARTCHAR Egrave
ENCODING 200
SWIDTH 593 0
DWIDTH 28 0
BBX 24 45 4 0
BITMAP
010000
078000
07E000
07F000
07F800
03FC00
00FE00
007E00
003E00
000E00
000000
000000
7FFFFE
FFFFFE
FFFFFF
FFFFFE
F00000
F00000
F00000
F00000
F00000
F00000
F00000
F00000
F00000
F00000
FFFFF0
FFFFF8
FFFFF8
FFFFF8
F00000
F00000
F00000
F00000
F00000
F00000
F00000
F00000
F00000
F00000
F00000
FFFFFE
FFFFFE
FFFFFE
7FFFFE
ENDCHAR
STARTCHAR Eacute
ENCODING 201
SWIDTH 593 0
DWIDTH 28 0
BBX 24 45 4 0
BITMAP
000080
0003C0
0007E0
000FE0
001FE0
003FC0
007F00
00FE00
007800
007000
000000
000000
7FFFFE
FFFFFE
FFFFFF
FFFFFE
F00000
F00000
F00000
F00000
F00000
F00000
F00000
F00000
F00000
F00000
FFFFF0
FFFFF8
FFFFF8
FFFFF8
F00000
F00000
F00000
F00000
F00000
F00000
F00000
F00000
F00000
F00000
F00000
FFFFFE
FFFFFE
FFFFFE
7FFFFE
ENDCHAR
STARTCHAR Ecircumflex
ENCODING 202
SWIDTH 593 0
DWIDTH 28 0
BBX 24 44 4 0
BITMAP
000800
003C00
007E00
00FF00
01FF80
03FFC0
07F7E0
0FE3F0
0781E0
0700E0
000000
7FFFFE
FFFFFE
FFFFFF
FFFFFE
F00000
F00000
F00000
F00000
F00000
F00000
F00000
F00000
F00000
F00000
FFFFF0
FFFFF8
FFFFF8
FFFFF8
F00000
F00000
F00000
F00000
F00000
F00000
F00000
F00000
F00000
F00000
F00000
FFFFFE
FFFFFE
FFFFFE
7FFFFE
ENDCHAR
STARTCHAR Edieresis
ENCODING 203
SWIDTH 593 0
DWIDTH 28 0
BBX 24 42 4 0
BITMAP
0383C0
07E7E0
0FE7F0
0FE7E0
07C7E0
0383C0
000000
000000
000000
7FFFFE
FFFFFE
FFFFFF
FFFFFE
F00000
F00000
F00000
F00000
F00000
F00000
F00000
F00000
F00000
F00000
FFFFF0
FFFFF8
FFFFF8
FFFFF8
F00000
F00000
F00000
F00000
F00000
F00000
F00000
F00000
F00000
F00000
F00000
FFFFFE
FFFFFE
FFFFFE
7FFFFE
ENDCHAR
STARTCHAR Igrave
ENCODING 204
SWIDTH 405 0
DWIDTH 19 0
BBX 16 45 2 0
BITMAP
1000
7C00
7E00
7F00
7F80
3FC0
0FE0
07F0
01E0
00E0
0000
0000
FFFE
FFFF
FFFF
FFFE
07C0
07C0
07C0
07C0
07C0
07C0
07C0
07C0
07C0
07C0
07C0
07C0
07C0
07C0
07C0
07C0
07C0
07C0
07C0
07C0
07C0
07C0
07C0
07C0
07C0
FFFE
FFFF
FFFF
FFFE
ENDCHAR
STARTCHAR Iacute
ENCODING 205
SWIDTH 405 0
DWIDTH 19 0
BBX 16 45 2 0
BITMAP
0008
001E
007E
00FE
01FE
03FC
07F0
0FE0
07C0
0700
0000
0000
FFFE
FFFF
FFFF
FFFE
07C0
07C0
07C0
07C0
07C0
07C0
07C0
07C0
07C0
07C0
07C0
07C0
07C0
07C0
07C0
07C0
07C0
07C0
07C0
07C0
07C0
07C0
07C0
07C0
07C0
FFFE
FFFF
FFFF
FFFE
ENDCHAR
STARTCHAR Icircumflex
ENCODING 206
SWIDTH 405 0
DWIDTH 19 0
BBX 16 44 2 0
BITMAP
0080
03C0
07E0
0FF0
1FF8
3FFE
7F7E
FE3F
781F
700E
0000
FFFE
FFFF
FFFF
FFFE
07C0
07C0
07C0
07C0
07C0
07C0
07C0
07C0
07C0
07C0
07C0
07C0
07C0
07C0
07C0
07C0
07C0
07C0
07C0
07C0
07C0
07C0
07C0
07C0
07C0
FFFE
FFFF
FFFF
FFFE
ENDCHAR
STARTCHAR Idieresis
ENCODING 207
SWIDTH 405 0
DWIDTH 19 0
BBX 16 42 2 0
BITMAP
3C1C
7E3E
FE7F
FE7F
7E7E
3C3C
0000
0000
0000
FFFE
FFFF
FFFF
FFFE
07C0
07C0
07C0
07C0
07C0
07C0
07C0
07C0
07C0
07C0
07C0
07C0
07C0
07C0
07C0
07C0
07C0
07C0
07C0
07C0
07C0
07C0
07C0
07C0
07C0
FFFE
FFFF
FFFF
FFFE
ENDCHAR
STARTCHAR Eth
ENCODING 208
SWIDTH 651 0
DWIDTH 31 0
BBX 28 34 1 -1
BITMAP
07F00000
0FFF0000
0FFFE000
0FFFF800
0FFFFC00
0F9FFE00
0F81FF00
0F807F80
0F801FC0
0F800FC0
0F8007E0
0F8003E0
0F8003F0
0F8001F0
0F8001F0
0F8001F0
7FFC01F0
FFFC01F0
FFFE00F0
FFFC01F0
0F8001F0
0F8001F0
0F8001F0
0F8001F0
0F8003E0
0F8003E0
0F8007E0
0F801FC0
0F803F80
0FC7FF00
0FFFFE00
0FFFFC00
07FFF000
01FF0000
ENDCHAR
STARTCHAR Ntilde
ENCODING 209
SWIDTH 652 0
DWIDTH 31 0
BBX 24 44 4 0
BITMAP
000020
01E070
07F078
0FF870
0FFCF0
1E7FE0
1C3FE0
1C1FC0
180F00
000000
000000
60000E
F0001F
F8001F
FC001F
FC001F
FE001F
FF001F
FF001F
FF801F
FFC01F
FFC01F
F7E01F
F3F01F
F1F01F
F1F81F
F0FC1F
F07C1F
F07E1F
F03F1F
F01F1F
F01F9F
F00FDF
F007FF
F003FF
F003FF
F001FF
F000FF
F000FF
F0007F
F0003F
F0003F
F0001F
60000E
ENDCHAR
STARTCHAR Ograve
ENCODING 210
SWIDTH 638 0
DWIDTH 31 0
BBX 27 45 2 0
BITMAP
00400000
01E00000
01F80000
01FC0000
01FE0000
00FF0000
003F8000
001F8000
000F8000
00038000
00000000
00000000
001FC000
00FFF000
01FFF800
03FFFC00
07F9FE00
0FC07F00
1F801F80
1F000F80
3E000FC0
3E0007C0
7C0007C0
7C0007C0
780003E0
F80003E0
F80003E0
F80003E0
F80003E0
F80003E0
F80003C0
F80007C0
F80007C0
F80007C0
F8000F80
7C000F80
7C001F80
3E001F00
3F003E00
1F80FE00
1FF7FC00
0FFFF800
07FFF000
01FFC000
007F0000
ENDCHAR
STARTCHAR Oacute
ENCODING 211
SWIDTH 638 0
DWIDTH 31 0
BBX 27 45 2 0
BITMAP
00002000
0000F000
0001F800
0003F800
0007F800
000FF000
001FC000
003F8000
003E0000
001C0000
00000000
00000000
001FC000
00FFF000
01FFF800
03FFFC00
07F9FE00
0FC07F00
1F801F80
1F000F80
3E000FC0
3E0007C0
7C0007C0
7C0007C0
780003E0
F80003E0
F80003E0
F80003E0
F80003E0
F80003E0
F80003C0
F80007C0
F80007C0
F80007C0
F8000F80
7C000F80
7C001F80
3E001F00
3F003E00
1F80FE00
1FF7FC00
0FFFF800
07FFF000
01FFC000
007F0000
ENDCHAR
STARTCHAR Ocircumflex
ENCODING 212
SWIDTH 638 0
DWIDTH 31 0
BBX 27 44 2 0
BITMAP
00020000
000F0000
001F8000
003FC000
007FE000
00FFF000
01FFF800
03F8FC00
03E07800
01C03800
00000000
001FC000
00FFF000
01FFF800
03FFFC00
07F9FE00
0FC07F00
1F801F80
1F000F80
3E000FC0
3E0007C0
7C0007C0
7C0007C0
780003E0
F80003E0
F80003E0
F80003E0
F80003E0
F80003E0
F80003C0
F80007C0
F80007C0
F80007C0
F8000F80
7C000F80
7C001F80
3E001F00
3F003E00
1F80FE00
1FF7FC00
0FFFF800
07FFF000
01FFC000
007F0000
ENDCHAR
STARTCHAR Otilde
ENCODING 213
SWIDTH 638 0
DWIDTH 31 0
BBX 27 44 2 0
BITMAP
00000400
00780E00
01FC1E00
03FE1E00
03FF3C00
079FFC00
078FF800
0707F000
0701E000
00000000
00000000
001FC000
00FFF000
01FFF800
03FFFC00
07F9FE00
0FC07F00
1F801F80
1F000F80
3E000FC0
3E0007C0
7C0007C0
7C0007C0
780003E0
F80003E0
F80003E0
F80003E0
F80003E0
F80003E0
F80003C0
F80007C0
F80007C0
F80007C0
F8000F80
7C000F80
7C001F80
3E001F00
3F003E00
1F80FE00
1FF7FC00
0FFFF800
07FFF000
01FFC000
007F0000
ENDCHAR
STARTCHAR Odieresis
ENCODING 214
SWIDTH 638 0
DWIDTH 31 0
BBX 27 42 2 0
BITMAP
00E0F000
01F1F800
03F9F800
03F9F800
01F1F800
00E0F000
00000000
00000000
00000000
001FC000
00FFF000
01FFF800
03FFFC00
07F9FE00
0FC07F00
1F801F80
1F000F80
3E000FC0
3E0007C0
7C0007C0
7C0007C0
780003E0
F80003E0
F80003E0
F80003E0
F80003E0
F80003E0
F80003C0
F80007C0
F80007C0
F80007C0
F8000F80
7C000F80
7C001F80
3E001F00
3F003E00
1F80FE00
1FF7FC00
0FFFF800
07FFF000
01FFC000
007F0000
ENDCHAR
STARTCHAR multiply
ENCODING 215
SWIDTH 387 0
DWIDTH 19 0
BBX 13 13 3 5
BITMAP
7070
F8F8
FDF8
7FF0
7FE0
3FC0
1FC0
3FE0
7FF0
FFF0
FDF8
F8F8
6070
ENDCHAR
STARTCHAR Oslash
ENCODING 216
SWIDTH 629 0
DWIDTH 30 0
BBX 26 37 2 -1
BITMAP
00000E00
00001F00
00001F00
001FBE00
00FFFE00
01FFFC00
03FFFC00
07F9FE00
0FC0FF00
1F81FF00
1F03FF80
3E03EF80
3E07EF80
7C07C7C0
7C0FC7C0
780F87C0
F81F03C0
F81F03C0
F83E03C0
F83E03C0
F87C03C0
F8FC07C0
F8F807C0
F9F807C0
F9F00780
FBF00F80
7FE00F80
7FC01F00
7FC03F00
3F807E00
3F80FC00
1FE7F800
3FFFF000
3FFFE000
7DFFC000
7C7F0000
38000000
ENDCHAR
STARTCHAR Ugrave
ENCODING 217
SWIDTH 669 0
DWIDTH 32 0
BBX 28 45 2 0
BITMAP
00200000
00F00000
00F80000
01FE0000
00FF0000
007F8000
003FC000
000FC000
0007C000
00018000
00000000
00000000
780001E0
780001E0
780001E0
780001E0
780001E0
780001F0
780001F0
780001F0
F80001F0
F80001F0
F80001F0
780001F0
780001F0
780001F0
780001F0
780001E0
780001E0
7C0003E0
7C0003E0
7C0003E0
7C0003E0
7C0003E0
3E0003E0
3E0007C0
3E0007C0
1F000FC0
1F801F80
0FC03F80
0FF9FF00
07FFFE00
03FFFC00
00FFF000
003FC000
ENDCHAR
STARTCHAR Uacute
ENCODING 218
SWIDTH 669 0
DWIDTH 32 0
BBX 28 45 2 0
BITMAP
00001000
00007800
0000FC00
0001FC00
0007F800
000FF000
001FE000
001FC000
001F0000
000E0000
00000000
00000000
780001E0
780001E0
780001E0
780001E0
780001E0
780001F0
780001F0
780001F0
F80001F0
F80001F0
F80001F0
780001F0
780001F0
780001F0
780001F0
780001E0
780001E0
7C0003E0
7C0003E0
7C0003E0
7C0003E0
7C0003E0
3E0003E0
3E0007C0
3E0007C0
1F000FC0
1F801F80
0FC03F80
0FF9FF00
07FFFE00
03FFFC00
00FFF000
003FC000
ENDCHAR
STARTCHAR Ucircumflex
ENCODING 219
SWIDTH 669 0
DWIDTH 32 0
BBX 28 44 2 0
BITMAP
00010000
00078000
000FC000
001FE000
003FF000
00FFF800
01FFFC00
01F8FC00
01F07C00
00E01800
00000000
780001E0
780001E0
780001E0
780001E0
780001E0
780001F0
780001F0
780001F0
F80001F0
F80001F0
F80001F0
780001F0
780001F0
780001F0
780001F0
780001E0
780001E0
7C0003E0
7C0003E0
7C0003E0
7C0003E0
7C0003E0
3E0003E0
3E0007C0
3E0007C0
1F000FC0
1F801F80
0FC03F80
0FF9FF00
07FFFE00
03FFFC00
00FFF000
003FC000
ENDCHAR
STARTCHAR Udieresis
ENCODING 220
SWIDTH 669 0
DWIDTH 32 0
BBX 28 42 2 0
BITMAP
00707800
01F8FC00
01FCFC00
01FCFC00
01F8FC00
00F07800
00000000
00000000
00000000
780001E0
780001E0
780001E0
780001E0
780001E0
780001F0
780001F0
780001F0
F80001F0
F80001F0
F80001F0
780001F0
780001F0
780001F0
780001F0
780001E0
780001E0
7C0003E0
7C0003E0
7C0003E0
7C0003E0
7C0003E0
3E0003E0
3E0007C0
3E0007C0
1F000FC0
1F801F80
0FC03F80
0FF9FF00
07FFFE00
03FFFC00
00FFF000
003FC000
ENDCHAR
STARTCHAR Yacute
ENCODING 221
SWIDTH 582 0
DWIDTH 28 0
BBX 28 45 0 0
BITMAP
00002000
0000F000
0001F800
0003F800
0007F800
000FF000
001FC000
003F8000
001E0000
001C0000
00000000
00000000
700000E0
F80001F0
F80001F0
FC0003F0
7C0003E0
3E0007E0
3F000FC0
1F000F80
1F801F80
0F801F00
0FC03F00
07E03E00
03E07C00
03F0FC00
01F0F800
01F9F800
00F9F000
00FFF000
007FE000
003FC000
003FC000
001F8000
001F8000
001F0000
003E0000
007E0000
007C0000
00FC0000
00F80000
01F00000
01F00000
01E00000
00C00000
ENDCHAR
STARTCHAR Thorn
ENCODING 222
SWIDTH 518 0
DWIDTH 25 0
BBX 20 33 4 0
BITMAP
600000
F00000
F00000
F00000
F00000
FFC000
FFFC00
FFFF00
FFFFC0
F1FFE0
F00FE0
F003F0
F001F0
F001F0
F000F0
F000F0
F001F0
F001F0
F003F0
F007E0
F00FC0
F07FC0
FFFF80
FFFE00
FFF800
FFE000
F00000
F00000
F00000
F00000
F00000
F00000
E00000
ENDCHAR
STARTCHAR germandbls
ENCODING 223
SWIDTH 518 0
DWIDTH 25 0
BBX 20 31 3 -1
BITMAP
07F000
1FF800
3FFE00
7FFE00
7C3F00
F81F00
F80F00
F80F00
F80F00
F80F00
F81F00
F87E00
F9FC00
F9FF00
F9FFC0
F9FFE0
F807E0
F803F0
F801F0
F801F0
F800F0
F800F0
F800F0
F801F0
F801F0
F803E0
F81FE0
F8FFC0
F0FF80
70FF00
007800
ENDCHAR
STARTCHAR agrave
ENCODING 224
SWIDTH 508 0
DWIDTH 24 0
BBX 19 37 2 0
BITMAP
010000
03C000
07E000
07E000
07F000
03F800
01FC00
00FC00
007E00
003E00
001C00
000000
000000
00FE00
03FFC0
07FFE0
0FFFE0
1FEFE0
3F03E0
3E03E0
7C03E0
7C03E0
F803E0
F803E0
F803E0
F803E0
F003E0
F803E0
F803E0
F803E0
F803E0
7C07E0
7F9FE0
3FFFE0
1FFFE0
0FFDE0
03F1C0
ENDCHAR
STARTCHAR aacute
ENCODING 225
SWIDTH 508 0
DWIDTH 24 0
BBX 19 37 2 0
BITMAP
000100
0003C0
0007C0
000FC0
001FC0
003F80
003F00
007E00
00FC00
00F800
007000
000000
000000
00FE00
03FFC0
07FFE0
0FFFE0
1FEFE0
3F03E0
3E03E0
7C03E0
7C03E0
F803E0
F803E0
F803E0
F803E0
F003E0
F803E0
F803E0
F803E0
F803E0
7C07E0
7F9FE0
3FFFE0
1FFFE0
0FFDE0
03F1C0
ENDCHAR
STARTCHAR acircumflex
ENCODING 226
SWIDTH 508 0
DWIDTH 24 0
BBX 19 36 2 0
BITMAP
001000
003C00
007E00
00FF00
03FF80
07FFC0
0FEFE0
0FC7E0
0F83E0
0700C0
000000
000000
00FE00
03FFC0
07FFE0
0FFFE0
1FEFE0
3F03E0
3E03E0
7C03E0
7C03E0
F803E0
F803E0
F803E0
F803E0
F003E0
F803E0
F803E0
F803E0
F803E0
7C07E0
7F9FE0
3FFFE0
1FFFE0
0FFDE0
03F1C0
ENDCHAR
STARTCHAR atilde
ENCODING 227
SWIDTH 508 0
DWIDTH 24 0
BBX 21 36 2 0
BITMAP
000020
01E070
07F078
0FF870
0FFCF0
1E7FE0
1C3FE0
1C1FC0
180F00
000000
000000
000000
00FE00
03FFC0
07FFE0
0FFFE0
1FEFE0
3F03E0
3E03E0
7C03E0
7C03E0
F803E0
F803E0
F803E0
F803E0
F003E0
F803E0
F803E0
F803E0
F803E0
7C07E0
7F9FE0
3FFFE0
1FFFE0
0FFDE0
03F1C0
ENDCHAR
STARTCHAR adieresis
ENCODING 228
SWIDTH 508 0
DWIDTH 24 0
BBX 19 34 2 0
BITMAP
0383C0
07C7E0
0FE7E0
0FE7E0
0FC7E0
0783C0
000000
000000
000000
000000
00FE00
03FFC0
07FFE0
0FFFE0
1FEFE0
3F03E0
3E03E0
7C03E0
7C03E0
F803E0
F803E0
F803E0
F803E0
F003E0
F803E0
F803E0
F803E0
F803E0
7C07E0
7F9FE0
3FFFE0
1FFFE0
0FFDE0
03F1C0
ENDCHAR
STARTCHAR aring
ENCODING 229
SWIDTH 508 0
DWIDTH 24 0
BBX 19 36 2 0
BITMAP
007E00
01FF00
03FF80
03FFC0
07C3C0
0783C0
07EFC0
03FF80
03FF80
01FF00
007C00
000000
00FE00
03FFC0
07FFE0
0FFFE0
1FEFE0
3F03E0
3E03E0
7C03E0
7C03E0
F803E0
F803E0
F803E0
F803E0
F003E0
F803E0
F803E0
F803E0
F803E0
7C07E0
7F9FE0
3FFFE0
1FFFE0
0FFDE0
03F1C0
ENDCHAR
STARTCHAR ae
ENCODING 230
SWIDTH 773 0
DWIDTH 37 0
BBX 34 24 2 0
BITMAP
00FC000000
03FF87F800
0FFFDFFC00
1FFFFFFF00
1FCFFFFF00
3F03FC1F80
7E03F80780
7C03F01F80
7803E03F80
F803E0FF00
F803C3FE00
F803CFF800
F003DFE000
F003FFC000
F003FF0000
F803FC0000
F803F80000
F803F00380
7C07F807C0
7F3FFF3FC0
3FFFFFFF80
1FFFFFFF00
0FFBDFFE00
03E1C3F000
ENDCHAR
STARTCHAR ccedilla
ENCODING 231
SWIDTH 470 0
DWIDTH 23 0
BBX 20 34 2 -10
BITMAP
00FC00
03FF00
07FF80
0FFFC0
1FCFC0
3F03E0
3E01C0
7C0000
7C0000
F80000
F80000
F80000
F00000
F00000
F00000
F80000
F800E0
FC01F0
7C03F0
7F07F0
3FFFE0
1FFFC0
0FFF80
03FE00
006000
006000
00FC00
00FE00
000F00
000700
01C700
01FF00
01FE00
007800
ENDCHAR
STARTCHAR egrave
ENCODING 232
SWIDTH 491 0
DWIDTH 24 0
BBX 20 37 2 0
BITMAP
020000
078000
0FC000
0FC000
0FE000
07F000
03F800
01F800
00FC00
007C00
003800
000000
000000
01FC00
07FF00
0FFFC0
1FFFC0
3FCFE0
3E03F0
7C01F0
7807F0
F80FE0
F83FC0
F0FF00
F3FC00
FFF800
FFE000
FF8000
FE0000
7C0000
7C0070
7E01F0
3FC7F0
1FFFF0
0FFFE0
03FF80
00FE00
ENDCHAR
STARTCHAR eacute
ENCODING 233
SWIDTH 491 0
DWIDTH 24 0
BBX 20 37 2 0
BITMAP
000200
000780
000F80
001F80
003F80
007F00
007E00
00FC00
01F800
01F000
00E000
000000
000000
01FC00
07FF00
0FFFC0
1FFFC0
3FCFE0
3E03F0
7C01F0
7807F0
F80FE0
F83FC0
F0FF00
F3FC00
FFF800
FFE000
FF8000
FE0000
7C0000
7C0070
7E01F0
3FC7F0
1FFFF0
0FFFE0
03FF80
00FE00
ENDCHAR
STARTCHAR ecircumflex
ENCODING 234
SWIDTH 491 0
DWIDTH 24 0
BBX 20 36 2 0
BITMAP
002000
007800
00FC00
01FE00
07FF00
0FFF80
1FDFC0
1F8FC0
1F07C0
0E0380
000000
000000
01FC00
07FF00
0FFFC0
1FFFC0
3FCFE0
3E03F0
7C01F0
7807F0
F80FE0
F83FC0
F0FF00
F3FC00
FFF800
FFE000
FF8000
FE0000
7C0000
7C0070
7E01F0
3FC7F0
1FFFF0
0FFFE0
03FF80
00FE00
ENDCHAR
STARTCHAR edieresis
ENCODING 235
SWIDTH 491 0
DWIDTH 24 0
BBX 20 34 2 0
BITMAP
070780
1F8FC0
1FCFC0
1FCFC0
1F8FC0
0F0780
000000
000000
000000
000000
01FC00
07FF00
0FFFC0
1FFFC0
3FCFE0
3E03F0
7C01F0
7807F0
F80FE0
F83FC0
F0FF00
F3FC00
FFF800
FFE000
FF8000
FE0000
7C0000
7C0070
7E01F0
3FC7F0
1FFFF0
0FFFE0
03FF80
00FE00
ENDCHAR
STARTCHAR igrave
ENCODING 236
SWIDTH 245 0
DWIDTH 12 0
BBX 10 37 -1 0
BITMAP
2000
7800
FC00
FC00
7E00
7F00
3F80
1FC0
0FC0
07C0
0380
0000
0000
0700
0F80
0F80
0F80
0F80
0F80
0F80
0F80
0F80
0F80
0F80
0F80
0F80
0F80
0F80
0F80
0F80
0F80
0F80
0F80
0F80
0F80
0F80
0700
ENDCHAR
STARTCHAR iacute
ENCODING 237
SWIDTH 245 0
DWIDTH 12 0
BBX 10 37 2 0
BITMAP
0100
03C0
07C0
0FC0
1FC0
3F80
3F00
7E00
FC00
7800
7000
0000
0000
3800
7C00
7C00
7C00
7C00
7C00
7C00
7C00
7C00
7C00
7C00
7C00
7C00
7C00
7C00
7C00
7C00
7C00
7C00
7C00
7C00
7C00
7C00
3800
ENDCHAR
STARTCHAR icircumflex
ENCODING 238
SWIDTH 245 0
DWIDTH 12 0
BBX 15 36 -2 0
BITMAP
0080
03C0
07E0
0FF0
1FF8
7FFC
FFFE
FC7E
F81E
700E
0000
0000
0380
07C0
07C0
07C0
07C0
07C0
07C0
07C0
07C0
07C0
07C0
07C0
07C0
07C0
07C0
07C0
07C0
07C0
07C0
07C0
07C0
07C0
07C0
0380
ENDCHAR
STARTCHAR idieresis
ENCODING 239
SWIDTH 245 0
DWIDTH 12 0
BBX 15 34 -2 0
BITMAP
383C
7C7E
FE7E
FE7E
FC7E
783C
0000
0000
0000
0000
0380
07C0
07C0
07C0
07C0
07C0
07C0
07C0
07C0
07C0
07C0
07C0
07C0
07C0
07C0
07C0
07C0
07C0
07C0
07C0
07C0
07C0
07C0
0380
ENDCHAR
STARTCHAR eth
ENCODING 240
SWIDTH 477 0
DWIDTH 23 0
BBX 19 32 2 0
BITMAP
020200
078F80
0FFF80
07FF00
07FE00
07F800
1FF800
3FFC00
3E7E00
3C3E00
101F00
00FF80
03FF80
0FFF80
1FFFC0
3FC7C0
3F03C0
7C03E0
7803E0
F803E0
F803E0
F003E0
F003C0
F003C0
F007C0
F80F80
F81F80
7F7F00
7FFF00
3FFE00
1FF800
07E000
ENDCHAR
STARTCHAR ntilde
ENCODING 241
SWIDTH 543 0
DWIDTH 26 0
BBX 20 36 3 0
BITMAP
000040
0780E0
0FE1E0
1FE1E0
3FF3C0
3CFFC0
787F80
707F00
301E00
000000
000000
000000
703F00
F8FF80
F9FFC0
FBFFE0
FBF7E0
FFC1F0
FF81F0
FF01F0
FE01F0
FE01F0
FC00F0
FC00F0
F800F0
F800F0
F800F0
F800F0
F800F0
F800F0
F800F0
F800F0
F800F0
F800F0
F800F0
700060
ENDCHAR
STARTCHAR ograve
ENCODING 242
SWIDTH 517 0
DWIDTH 25 0
BBX 21 37 2 0
BITMAP
010000
078000
0FC000
0FE000
07E000
03F000
01F800
00FC00
007C00
003C00
001800
000000
000000
00FC00
03FF00
07FF80
1FFFC0
1FCFE0
3F03F0
7E01F0
7C01F0
F800F8
F800F8
F800F8
F800F8
F800F8
F800F8
F800F8
F801F0
F801F0
7C03E0
7E07E0
3FBFC0
3FFF80
1FFF00
07FE00
01F800
ENDCHAR
STARTCHAR oacute
ENCODING 243
SWIDTH 517 0
DWIDTH 25 0
BBX 21 37 2 0
BITMAP
000200
000780
000F80
001FC0
001F80
003F00
007E00
00FC00
00F800
00F000
006000
000000
000000
00FC00
03FF00
07FF80
1FFFC0
1FCFE0
3F03F0
7E01F0
7C01F0
F800F8
F800F8
F800F8
F800F8
F800F8
F800F8
F800F8
F801F0
F801F0
7C03E0
7E07E0
3FBFC0
3FFF80
1FFF00
07FE00
01F800
ENDCHAR
STARTCHAR ocircumflex
ENCODING 244
SWIDTH 517 0
DWIDTH 25 0
BBX 21 36 2 0
BITMAP
001000
007800
00FC00
01FE00
03FF00
07FF80
0FEFC0
1FC7E0
1F03C0
0E01C0
000000
000000
00FC00
03FF00
07FF80
1FFFC0
1FCFE0
3F03F0
7E01F0
7C01F0
F800F8
F800F8
F800F8
F800F8
F800F8
F800F8
F800F8
F801F0
F801F0
7C03E0
7E07E0
3FBFC0
3FFF80
1FFF00
07FE00
01F800
ENDCHAR
STARTCHAR otilde
ENCODING 245
SWIDTH 517 0
DWIDTH 25 0
BBX 21 36 2 0
BITMAP
000020
03C070
0FE0F0
0FF0F0
1FF9E0
1C7FE0
3C3FC0
383F80
180F00
000000
000000
000000
00FC00
03FF00
07FF80
1FFFC0
1FCFE0
3F03F0
7E01F0
7C01F0
F800F8
F800F8
F800F8
F800F8
F800F8
F800F8
F800F8
F801F0
F801F0
7C03E0
7E07E0
3FBFC0
3FFF80
1FFF00
07FE00
01F800
ENDCHAR
STARTCHAR odieresis
ENCODING 246
SWIDTH 517 0
DWIDTH 25 0
BBX 21 34 2 0
BITMAP
078380
0FC7C0
1FCFE0
1FCFE0
0FCFC0
078780
000000
000000
000000
000000
00FC00
03FF00
07FF80
1FFFC0
1FCFE0
3F03F0
7E01F0
7C01F0
F800F8
F800F8
F800F8
F800F8
F800F8
F800F8
F800F8
F801F0
F801F0
7C03E0
7E07E0
3FBFC0
3FFF80
1FFF00
07FE00
01F800
ENDCHAR
STARTCHAR divide
ENCODING 247
SWIDTH 438 0
DWIDTH 21 0
BBX 15 18 3 2
BITMAP
0180
03C0
07C0
03C0
0380
0000
0000
FFFE
FFFE
FFFE
FFFC
0000
0000
0380
0780
07C0
0780
0300
ENDCHAR
STARTCHAR oslash
ENCODING 248
SWIDTH 517 0
DWIDTH 25 0
BBX 21 28 2 -1
BITMAP
000080
0001E0
0001E0
00FFE0
03FFE0
0FFFC0
1FFFC0
1FCFE0
3F1FF0
7E1FF0
7C3FF0
F83EF8
F87CF8
F8FCF8
F8F8F8
F1F0F8
F9F0F8
FBE0F8
FBE1F0
FFC1F0
7F83F0
7F87E0
3FBFC0
3FFF80
3FFF00
7FFE00
7DF800
380000
ENDCHAR
STARTCHAR ugrave
ENCODING 249
SWIDTH 518 0
DWIDTH 25 0
BBX 19 37 3 0
BITMAP
040000
1F0000
1F0000
1F8000
1FC000
0FE000
07F000
03F000
01F800
00F800
007000
000000
000000
7001C0
F803C0
F803E0
F803E0
F803E0
F803E0
F003E0
F003E0
F003E0
F003E0
F003E0
F003E0
F003E0
F003E0
F003E0
F003E0
F803E0
F807E0
F81FE0
7EFFE0
7FFFE0
3FFBE0
3FF3C0
0FC1C0
ENDCHAR
STARTCHAR uacute
ENCODING 250
SWIDTH 518 0
DWIDTH 25 0
BBX 19 37 3 0
BITMAP
000400
001E00
001F00
003F00
007F00
00FE00
01FC00
01F800
03F000
03E000
01C000
000000
000000
7001C0
F803C0
F803E0
F803E0
F803E0
F803E0
F003E0
F003E0
F003E0
F003E0
F003E0
F003E0
F003E0
F003E0
F003E0
F003E0
F803E0
F807E0
F81FE0
7EFFE0
7FFFE0
3FFBE0
3FF3C0
0FC1C0
ENDCHAR
STARTCHAR ucircumflex
ENCODING 251
SWIDTH 518 0
DWIDTH 25 0
BBX 19 36 3 0
BITMAP
004000
00F000
01F800
07FC00
0FFE00
1FFF00
3FBF80
3F1F80
3E0F80
1C0700
000000
000000
7001C0
F803C0
F803E0
F803E0
F803E0
F803E0
F003E0
F003E0
F003E0
F003E0
F003E0
F003E0
F003E0
F003E0
F003E0
F003E0
F803E0
F807E0
F81FE0
7EFFE0
7FFFE0
3FFBE0
3FF3C0
0FC1C0
ENDCHAR
STARTCHAR udieresis
ENCODING 252
SWIDTH 518 0
DWIDTH 25 0
BBX 19 34 3 0
BITMAP
1E0F00
3F1F80
3F3F80
3F3F80
3F1F80
1E0F00
000000
000000
000000
000000
7001C0
F803C0
F803E0
F803E0
F803E0
F803E0
F003E0
F003E0
F003E0
F003E0
F003E0
F003E0
F003E0
F003E0
F003E0
F003E0
F803E0
F807E0
F81FE0
7EFFE0
7FFFE0
3FFBE0
3FF3C0
0FC1C0
ENDCHAR
STARTCHAR yacute
ENCODING 253
SWIDTH 458 0
DWIDTH 22 0
BBX 22 46 0 -9
BITMAP
000200
000780
000F80
001FC0
001F80
003F00
007E00
00FC00
00F800
00F000
006000
000000
000000
700038
F8003C
F8007C
FC007C
7C00F8
7E00F8
3E01F0
3F01F0
1F03E0
1F83E0
0F83C0
0FC7C0
07C780
07EF80
03EF80
03FF00
01FF00
01FE00
00FE00
00FC00
007C00
007800
00F800
00F000
01F000
01F000
03E000
03E000
07C000
07C000
078000
078000
070000
ENDCHAR
STARTCHAR thorn
ENCODING 254
SWIDTH 521 0
DWIDTH 25 0
BBX 20 40 3 -8
BITMAP
700000
F80000
F80000
F80000
F80000
F80000
F80000
F80000
F8FC00
FBFF00
FFFF80
FFFFC0
FFE7E0
FE03E0
FC01F0
F801F0
F801F0
F800F0
F800F0
F800F0
F800F0
F800F0
F801F0
F801F0
F801E0
F803E0
F807E0
FF9FC0
FFFFC0
FFFF80
FFFE00
FBF800
F80000
F80000
F80000
F80000
F80000
F80000
780000
700000
ENDCHAR
STARTCHAR ydieresis
ENCODING 255
SWIDTH 458 0
DWIDTH 22 0
BBX 22 43 0 -9
BITMAP
078380
0FCFC0
1FCFE0
1FCFE0
0FCFC0
070780
000000
000000
000000
000000
700038
F8003C
F8007C
FC007C
7C00F8
7E00F8
3E01F0
3F01F0
1F03E0
1F83E0
0F83C0
0FC7C0
07C780
07EF80
03EF80
03FF00
01FF00
01FE00
00FE00
00FC00
007C00
007800
00F800
00F000
01F000
01F000
03E000
03E000
07C000
07C000
078000
078000
070000
ENDCHAR
STARTCHAR amacron
ENCODING 257
SWIDTH 508 0
DWIDTH 24 0
BBX 19 32 2 0
BITMAP
07FFC0
07FFC0
07FFC0
03FFC0
000000
000000
000000
000000
00FE00
03FFC0
07FFE0
0FFFE0
1FEFE0
3F03E0
3E03E0
7C03E0
7C03E0
F803E0
F803E0
F803E0
F803E0
F003E0
F803E0
F803E0
F803E0
F803E0
7C07E0
7F9FE0
3FFFE0
1FFFE0
0FFDE0
03F1C0
ENDCHAR
STARTCHAR Abreve
ENCODING 258
SWIDTH 552 0
DWIDTH 27 0
BBX 26 44 0 0
BITMAP
00001000
01803800
03C03C00
03E07800
01F9F800
01FFF800
00FFF000
007FE000
001F8000
00000000
00000000
00070000
000F0000
001F8000
001F8000
001F8000
003FC000
003FC000
007FC000
007FE000
007FE000
00FBE000
00F9F000
01F9F000
01F1F000
01F0F800
03E0F800
03E0F800
07E3FC00
07FFFC00
07FFFC00
3FFFFE00
7FFFFE00
7FF83E00
7F801F00
1F001F00
3E001F80
3E000F80
3E000F80
7C000FC0
7C0007C0
F80007C0
780007C0
70000380
ENDCHAR
STARTCHAR abreve
ENCODING 259
SWIDTH 508 0
DWIDTH 24 0
BBX 19 36 2 0
BITMAP
000040
0E00E0
0F01E0
0F81E0
0FE7E0
07FFC0
03FFC0
01FF00
007E00
000000
000000
000000
00FE00
03FFC0
07FFE0
0FFFE0
1FEFE0
3F03E0
3E03E0
7C03E0
7C03E0
F803E0
F803E0
F803E0
F803E0
F003E0
F803E0
F803E0
F803E0
F803E0
7C07E0
7F9FE0
3FFFE0
1FFFE0
0FFDE0
03F1C0
ENDCHAR
STARTCHAR Aogonek
ENCODING 260
SWIDTH 552 0
DWIDTH 27 0
BBX 29 42 0 -9
BITMAP
00070000
000F0000
001F8000
001F8000
001F8000
003FC000
003FC000
007FC000
007FE000
007FE000
00FBE000
00F9F000
01F9F000
01F1F000
01F0F800
03E0F800
03E0F800
07E3FC00
07FFFC00
07FFFC00
3FFFFE00
7FFFFE00
7FF83E00
7F801F00
1F001F00
3E001F80
3E000F80
3E000F80
7C000FC0
7C0007C0
F80007C0
78000FC0
70001FC0
00001F80
00003F00
00003E00
00003C00
00003C70
00003FF8
00003FF8
00001FF0
00000FE0
ENDCHAR
STARTCHAR aogonek
ENCODING 261
SWIDTH 508 0
DWIDTH 24 0
BBX 22 34 2 -10
BITMAP
01FF00
07FFE0
0FFFE0
1FFFE0
1F83E0
3F03E0
7E03E0
7C03E0
7803E0
F803E0
F803E0
F803E0
F803E0
F003E0
F803E0
F803E0
F803E0
FC07E0
7E1FE0
7FFFE0
3FFFE0
1FFFE0
07F9E0
0007E0
000FC0
001F80
001F00
003E00
003E10
003F78
001FFC
001FF8
000FF0
0007E0
ENDCHAR
STARTCHAR Cacute
ENCODING 262
SWIDTH 601 0
DWIDTH 29 0
BBX 26 45 2 0
BITMAP
00002000
0000F000
0001F800
0003F800
0007F800
000FF000
001FC000
003F8000
001E0000
001C0000
00000000
00000000
000FC000
007FF600
00FFFF00
01FFFF00
03F8FF00
07E01F00
0FC00F00
1F800F00
1F000E00
3E000000
3E000000
7C000000
7C000000
78000000
F8000000
F8000000
F8000000
F8000000
F8000000
F8000000
F8000000
F8000000
F8000000
7C000000
7C000380
7E0007C0
3F000FC0
1F803F80
1FF9FF80
0FFFFF00
03FFFC00
01FFF800
003FC000
ENDCHAR
STARTCHAR cacute
ENCODING 263
SWIDTH 470 0
DWIDTH 23 0
BBX 20 37 2 0
BITMAP
000200
000780
000F80
001F80
003F80
003F00
007E00
00FC00
00F800
00F000
00E000
000000
000000
00FC00
03FF00
07FF80
0FFFC0
1FDFC0
3F03E0
3E01C0
7C0000
7C0000
F80000
F80000
F80000
F00000
F00000
F00000
F80000
F800E0
7C01F0
7E03F0
3F9FE0
3FFFC0
1FFF80
07FF00
01FC00
ENDCHAR
STARTCHAR Ccircumflex
ENCODING 264
SWIDTH 601 0
DWIDTH 29 0
BBX 26 44 2 0
BITMAP
00020000
000F0000
001F8000
003FC000
007FE000
00FFF000
01FDF800
03F8FC00
01E07800
01C03800
00000000
000FC000
007FF600
00FFFF00
01FFFF00
03F8FF00
07E01F00
0FC00F00
1F800F00
1F000E00
3E000000
3E000000
7C000000
7C000000
78000000
F8000000
F8000000
F8000000
F8000000
F8000000
F8000000
F8000000
F8000000
F8000000
7C000000
7C000380
7E0007C0
3F000FC0
1F803F80
1FF9FF80
0FFFFF00
03FFFC00
01FFF800
003FC000
ENDCHAR
STARTCHAR ccircumflex
ENCODING 265
SWIDTH 470 0
DWIDTH 23 0
BBX 20 36 2 0
BITMAP
001000
007800
00FC00
01FE00
03FF00
07FF80
0FFFC0
1FC7E0
1F03C0
0E01C0
000000
000000
00FC00
03FF00
07FF80
0FFFC0
1FDFC0
3F03E0
3E01C0
7C0000
7C0000
F80000
F80000
F80000
F00000
F00000
F00000
F80000
F800E0
7C01F0
7E03F0
3F9FE0
3FFFC0
1FFF80
07FF00
01FC00
ENDCHAR
STARTCHAR Ccaron
ENCODING 268
SWIDTH 601 0
DWIDTH 29 0
BBX 26 44 2 0
BITMAP
00801000
01E03C00
01F0FC00
01F9FC00
00FFF800
00FFF000
007FE000
003FC000
001F8000
000E0000
00000000
000FC000
007FF600
00FFFF00
01FFFF00
03F8FF00
07E01F00
0FC00F00
1F800F00
1F000E00
3E000000
3E000000
7C000000
7C000000
78000000
F8000000
F8000000
F8000000
F8000000
F8000000
F8000000
F8000000
F8000000
F8000000
7C000000
7C000380
7E0007C0
3F000FC0
1F803F80
1FF9FF80
0FFFFF00
03FFFC00
01FFF800
003FC000
ENDCHAR
STARTCHAR ccaron
ENCODING 269
SWIDTH 470 0
DWIDTH 23 0
BBX 20 36 2 0
BITMAP
040080
0F03C0
1F87E0
1FCFC0
0FFFC0
07FF80
03FE00
01FC00
00F800
007000
000000
000000
00FC00
03FF00
07FF80
0FFFC0
1FDFC0
3F03E0
3E01C0
7C0000
7C0000
F80000
F80000
F80000
F00000
F00000
F00000
F80000
F800E0
7C01F0
7E03F0
3F9FE0
3FFFC0
1FFF80
07FF00
01FC00
ENDCHAR
STARTCHAR Dcaron
ENCODING 270
SWIDTH 623 0
DWIDTH 30 0
BBX 24 44 4 0
BITMAP
020080
0F01E0
0F87E0
0FCFE0
07FFC0
03FF80
01FF00
01FE00
00FC00
003000
000000
7F0000
FFF000
FFFE00
FFFF00
FFFFC0
F3FFE0
F01FF0
F007F8
F001FC
F000FC
F0007E
F0003E
F0003E
F0003F
F0001F
F0001F
F0001F
F0001F
F0001F
F0001F
F0001F
F0001F
F0003E
F0003E
F0007E
F0007C
F001FC
F007F8
FC7FF0
FFFFE0
FFFF80
FFFF00
1FF000
ENDCHAR
STARTCHAR dcaron
ENCODING 271
SWIDTH 571 0
DWIDTH 27 0
BBX 27 34 2 0
BITMAP
000001C0
0000E3E0
0000F3E0
0001F3E0
0001F3E0
0001F3E0
0001F3C0
0001F7C0
0001F3C0
0001F380
01F9F000
07FFF000
1FFFF000
1FFFF000
3F9FF000
7E03F000
7C01F000
7801F000
F801F000
F801F000
F801F000
F001F000
F001F000
F001F000
F001F000
F801F000
F801F000
F803F000
7C07E000
7F3FE000
3FFFE000
1FFFE000
0FF9E000
07E1E000
ENDCHAR
STARTCHAR Dcroat
ENCODING 272
SWIDTH 681 0
DWIDTH 33 0
BBX 28 34 2 -1
BITMAP
07F00000
0FFF0000
0FFFC000
0FFFF000
0FFFFC00
0F3FFE00
0F01FF00
0F007F80
0F001FC0
0F000FC0
0F0007E0
0F0007E0
0F0003E0
0F0003F0
0F0001F0
0F0001F0
7FF801F0
FFFC01F0
FFFC01F0
FFFC01F0
0F0001F0
0F0001F0
0F0001F0
0F0003E0
0F0003E0
0F0007E0
0F000FC0
0F001FC0
0F007F80
0FC7FF00
0FFFFE00
0FFFF800
0FFFE000
01FF0000
ENDCHAR
STARTCHAR dcroat
ENCODING 273
SWIDTH 538 0
DWIDTH 26 0
BBX 24 33 2 0
BITMAP
0000E0
0001F0
0001F0
001FFE
001FFE
001FFF
001FFE
0001F0
0001F0
01FDF0
07FFF0
1FFFF0
1FFFF0
3F9FF0
7E03F0
7C01F0
7801F0
F801F0
F801F0
F801F0
F001F0
F001F0
F001F0
F801F0
F801F0
F801F0
F803F0
7C07E0
7F3FE0
3FFFE0
1FFFE0
0FF9E0
07E1E0
ENDCHAR
STARTCHAR Eogonek
ENCODING 280
SWIDTH 593 0
DWIDTH 28 0
BBX 25 42 4 -9
BITMAP
7FFFFE00
FFFFFE00
FFFFFF00
FFFFFE00
F0000000
F0000000
F0000000
F0000000
F0000000
F0000000
F0000000
F0000000
F0000000
F0000000
FFFFF000
FFFFF800
FFFFF800
FFFFF800
F0000000
F0000000
F0000000
F0000000
F0000000
F0000000
F0000000
F0000000
F0000000
F0000000
F0000000
FFFFFE00
FFFFFE00
FFFFFE00
7FFFFE00
0001F800
0001F000
0003E000
0003C000
0003E780
0003FF80
0001FF80
0001FF00
0000FE00
ENDCHAR
STARTCHAR eogonek
ENCODING 281
SWIDTH 494 0
DWIDTH 24 0
BBX 20 33 2 -9
BITMAP
00FC00
07FF00
0FFFC0
1FFFE0
3FEFE0
3E01F0
7C03F0
7C07F0
F81FE0
F87FC0
F1FF00
F7FC00
FFF800
FFE000
FF8000
FE0000
7C0000
7E0070
3F01F0
3FE7F0
1FFFF0
0FFFE0
03FF80
007E00
00FC00
00F000
01F000
01E000
01F3C0
01FFC0
00FFC0
00FF80
003F00
ENDCHAR
STARTCHAR Ecaron
ENCODING 282
SWIDTH 593 0
DWIDTH 28 0
BBX 24 44 4 0
BITMAP
020040
0780F0
07C3F0
07E7F0
03FFE0
03FFC0
01FF80
00FF00
007E00
003800
000000
7FFFFE
FFFFFE
FFFFFF
FFFFFE
F00000
F00000
F00000
F00000
F00000
F00000
F00000
F00000
F00000
F00000
FFFFF0
FFFFF8
FFFFF8
FFFFF8
F00000
F00000
F00000
F00000
F00000
F00000
F00000
F00000
F00000
F00000
F00000
FFFFFE
FFFFFE
FFFFFE
7FFFFE
ENDCHAR
STARTCHAR ecaron
ENCODING 283
SWIDTH 491 0
DWIDTH 24 0
BBX 20 36 2 0
BITMAP
040100
1E03C0
1F07C0
1F9FC0
0FFF80
07FF00
03FE00
01FC00
00F800
007000
000000
000000
01FC00
07FF00
0FFFC0
1FFFC0
3FCFE0
3E03F0
7C01F0
7807F0
F80FE0
F83FC0
F0FF00
F3FC00
FFF800
FFE000
FF8000
FE0000
7C0000
7C0070
7E01F0
3FC7F0
1FFFF0
0FFFE0
03FF80
00FE00
ENDCHAR
STARTCHAR Gcircumflex
ENCODING 284
SWIDTH 706 0
DWIDTH 34 0
BBX 30 44 2 0
BITMAP
00010000
00078000
000FC000
001FE000
003FF000
007FF800
00FEFC00
01FC7E00
00F03C00
00E01C00
00000000
000FE000
007FFC00
01FFFE00
03FFFF80
07FCFFC0
0FE00FC0
1F8007E0
1F0003F0
3F0001F0
3E0001F0
7C0000F0
7C000060
FC000000
F8000000
F8000000
F8000000
F8000000
F8000000
F8007FF8
F800FFFC
F801FFFC
F801FFFC
7C00E1F8
7C0001F0
3E0003F0
3F0007E0
1F800FE0
1FC01FC0
0FFDFF80
07FFFF00
03FFFE00
00FFF800
001FC000
ENDCHAR
STARTCHAR gcircumflex
ENCODING 285
SWIDTH 548 0
DWIDTH 26 0
BBX 20 44 2 -8
BITMAP
001000
007800
00FC00
01FE00
03FF00
07FF80
0FFFC0
1F8FC0
1F03C0
0E01C0
000000
0000E0
00FEF0
03FFF0
07FFF0
0FFFF0
1FE7F0
3F01F0
3E01F0
7C01F0
7C01F0
7801F0
F801F0
F801F0
F801F0
F801F0
F801F0
F801F0
7803F0
7C03F0
7E07F0
3FBFF0
1FFFF0
1FFFF0
07FDF0
01F9E0
0001E0
0003E0
0007E0
1F3FC0
3FFFC0
3FFF80
1FFE00
07F800
ENDCHAR
STARTCHAR Hcircumflex
ENCODING 292
SWIDTH 714 0
DWIDTH 34 0
BBX 27 44 4 0
BITMAP
00040000
000E0000
003F0000
007FC000
00FFE000
01FFF000
03FBF000
03F1F800
03E0F800
03807000
00000000
E00001C0
F00003E0
F00003E0
F00003E0
F00003E0
F00003E0
F00003E0
F00003E0
F00003E0
F00003E0
F00003E0
F00003E0
F00003E0
F0007FE0
F07FFFE0
FFFFFFE0
FFFFFFE0
FFFFFFE0
FFFC03E0
FE0003E0
F00003E0
F00003E0
F00003E0
F00003E0
F00003E0
F00003E0
F00003E0
F00003E0
F00003E0
F00003E0
F00003E0
F00003E0
E00001C0
ENDCHAR
STARTCHAR hcircumflex
ENCODING 293
SWIDTH 528 0
DWIDTH 25 0
BBX 24 44 -2 0
BITMAP
010000
03C000
07E000
0FF000
3FF800
7FFC00
FEFE00
FC7E00
F83E00
701C00
000000
000000
038000
03C000
07C000
07C000
07C000
07C000
07C000
07C000
07C1F0
07C7F8
07CFFC
07DFFE
07FFBE
07FE1E
07FC1F
07F81F
07F00F
07E00F
07E00F
07C00F
07C00F
07C00F
07C00F
07C00F
07C00F
07C00F
07C00F
07C00F
07C00F
07C00F
03C00F
038006
ENDCHAR
STARTCHAR dotlessi
ENCODING 305
SWIDTH 245 0
DWIDTH 12 0
BBX 5 24 3 0
BITMAP
70
F8
F8
F8
F8
F8
F8
F8
F8
F8
F8
F8
F8
F8
F8
F8
F8
F8
F8
F8
F8
F8
F8
70
ENDCHAR
STARTCHAR Jcircumflex
ENCODING 308
SWIDTH 471 0
DWIDTH 23 0
BBX 21 44 1 0
BITMAP
000400
000F00
003F80
007FC0
00FFE0
01FFF0
03FBF8
03F1F8
03E0F8
018070
000000
000000
01FFE0
03FFF0
03FFF0
01FFF0
0007C0
0007C0
0007C0
0007C0
0007C0
0007C0
0007C0
0007C0
0007C0
0007C0
0007C0
0007C0
0007C0
0007C0
0007C0
0007C0
0007C0
7007C0
F807C0
F807C0
F807C0
F807C0
FC0F80
7F3F80
7FFF00
3FFF00
1FFC00
07F000
ENDCHAR
STARTCHAR jcircumflex
ENCODING 309
SWIDTH 261 0
DWIDTH 13 0
BBX 18 44 -4 -8
BITMAP
002000
007800
01FC00
03FE00
07FF00
0FFF80
1FDFC0
1F8FC0
1F07C0
1C0380
000000
000000
007000
00F800
00F800
00F800
00F800
00F800
00F800
00F800
00F800
00F800
00F800
00F800
00F800
00F800
00F800
00F800
00F800
00F800
00F800
00F800
00F800
00F800
00F800
00F800
60F800
F0F800
F8F800
FDF000
7FF000
3FF000
1FE000
0F8000
ENDCHAR
STARTCHAR Lacute
ENCODING 313
SWIDTH 513 0
DWIDTH 25 0
BBX 21 45 3 0
BITMAP
008000
03C000
07C000
0FE000
3FC000
7F8000
FF0000
FC0000
F80000
700000
000000
000000
300000
780000
780000
780000
780000
780000
780000
780000
780000
780000
780000
780000
780000
780000
780000
780000
780000
780000
780000
780000
780000
780000
780000
780000
780000
780000
780000
7FFFC0
7FFFF0
7FFFF8
7FFFF8
7FFFF0
7FFC00
ENDCHAR
STARTCHAR lacute
ENCODING 314
SWIDTH 236 0
DWIDTH 11 0
BBX 11 45 2 0
BITMAP
0080
03C0
07E0
0FE0
1FC0
7F80
FF00
FE00
F800
7000
0000
0000
0000
3800
7C00
7C00
7C00
7C00
7C00
7C00
7C00
7C00
7C00
7C00
7C00
7C00
7C00
7C00
7C00
7C00
7C00
7C00
7C00
7C00
7C00
7C00
7C00
7C00
7C00
7C00
7C00
7C00
7C00
7C00
3800
ENDCHAR
STARTCHAR Lcaron
ENCODING 317
SWIDTH 513 0
DWIDTH 25 0
BBX 20 34 4 0
BITMAP
0001C0
6003C0
F007E0
F007E0
F003C0
F007C0
F007C0
F00780
F00780
F00700
F00000
F00000
F00000
F00000
F00000
F00000
F00000
F00000
F00000
F00000
F00000
F00000
F00000
F00000
F00000
F00000
F00000
F00000
FFFF80
FFFFE0
FFFFF0
FFFFF0
FFFFE0
FFF800
ENDCHAR
STARTCHAR lcaron
ENCODING 318
SWIDTH 281 0
DWIDTH 13 0
BBX 13 34 3 0
BITMAP
0070
00F8
70F8
F9F8
F8F0
F8F0
F9F0
F9E0
F9E0
F8C0
F800
F800
F800
F800
F800
F800
F800
F800
F800
F800
F800
F800
F800
F800
F800
F800
F800
F800
F800
F800
F800
F800
F800
7000
ENDCHAR
STARTCHAR Lslash
ENCODING 321
SWIDTH 519 0
DWIDTH 25 0
BBX 23 33 1 0
BITMAP
0E0000
1E0000
1F0000
1F0000
1F0000
1F0000
1F0000
1F0000
1F0000
1F0000
1F0000
1F7800
1FF800
1FF800
1FF800
1FE000
7FC000
FF0000
FF0000
FF0000
FF0000
1F0000
1F0000
1F0000
1F0000
1F0000
1F0000
1FFFF8
1FFFFE
1FFFFE
1FFFFE
1FFFFC
0FFF80
ENDCHAR
STARTCHAR lslash
ENCODING 322
SWIDTH 293 0
DWIDTH 14 0
BBX 13 32 1 0
BITMAP
0700
0F00
0F00
0F00
0F00
0F00
0F00
0F00
0F00
0F00
0F00
0F38
0FF8
0FF8
0FF8
1FE0
3FC0
FF00
FF00
FF00
EF00
0F00
0F00
0F00
0F00
0F00
0F00
0F00
0F00
0F00
0F00
0700
ENDCHAR
STARTCHAR Nacute
ENCODING 323
SWIDTH 652 0
DWIDTH 31 0
BBX 24 45 4 0
BITMAP
000080
0003C0
0007E0
000FE0
001FC0
007F80
00FF00
00FE00
00F800
007000
000000
000000
60000E
F0001F
F8001F
FC001F
FC001F
FE001F
FF001F
FF001F
FF801F
FFC01F
FFC01F
F7E01F
F3F01F
F1F01F
F1F81F
F0FC1F
F07C1F
F07E1F
F03F1F
F01F1F
F01F9F
F00FDF
F007FF
F003FF
F003FF
F001FF
F000FF
F000FF
F0007F
F0003F
F0003F
F0001F
60000E
ENDCHAR
STARTCHAR nacute
ENCODING 324
SWIDTH 543 0
DWIDTH 26 0
BBX 20 37 3 0
BITMAP
000200
000F00
001F80
003F80
003F00
007E00
00FC00
01F800
01F000
01E000
00E000
000000
000000
703F00
F8FF80
F9FFC0
FBFFE0
FBF7E0
FFC1F0
FF81F0
FF01F0
FE01F0
FE01F0
FC00F0
FC00F0
F800F0
F800F0
F800F0
F800F0
F800F0
F800F0
F800F0
F800F0
F800F0
F800F0
F800F0
700060
ENDCHAR
STARTCHAR Ncaron
ENCODING 327
SWIDTH 652 0
DWIDTH 31 0
BBX 24 44 4 0
BITMAP
020040
0781E0
0FC3F0
07E7F0
07FFE0
03FFC0
01FF80
00FE00
007C00
003800
000000
60000E
F0001F
F8001F
FC001F
FC001F
FE001F
FF001F
FF001F
FF801F
FFC01F
FFC01F
F7E01F
F3F01F
F1F01F
F1F81F
F0FC1F
F07C1F
F07E1F
F03F1F
F01F1F
F01F9F
F00FDF
F007FF
F003FF
F003FF
F001FF
F000FF
F000FF
F0007F
F0003F
F0003F
F0001F
60000E
ENDCHAR
STARTCHAR ncaron
ENCODING 328
SWIDTH 543 0
DWIDTH 26 0
BBX 20 36 3 0
BITMAP
080100
1E0780
3F0FC0
1F9FC0
1FFF80
0FFF00
07FC00
03F800
01F000
00E000
000000
000000
703F00
F8FF80
F9FFC0
FBFFE0
FBF7E0
FFC1F0
FF81F0
FF01F0
FE01F0
FE01F0
FC00F0
FC00F0
F800F0
F800F0
F800F0
F800F0
F800F0
F800F0
F800F0
F800F0
F800F0
F800F0
F800F0
700060
ENDCHAR
STARTCHAR Ohungarumlaut
ENCODING 336
SWIDTH 638 0
DWIDTH 31 0
BBX 28 46 2 0
BITMAP
00010080
000781E0
000FC3E0
001FC7F0
007F9FE0
00FF3FC0
01FE7F80
01F87E00
01F07C00
00E03000
00000000
00000000
00000000
001FC000
00FFF000
01FFF800
03FFFC00
07F9FE00
0FC07F00
1F801F80
1F000F80
3E000FC0
3E0007C0
7C0007C0
7C0007C0
780003E0
F80003E0
F80003E0
F80003E0
F80003E0
F80003E0
F80003C0
F80007C0
F80007C0
F80007C0
F8000F80
7C000F80
7C001F80
3E001F00
3F003E00
1F80FE00
1FF7FC00
0FFFF800
07FFF000
01FFC000
007F0000
ENDCHAR
STARTCHAR ohungarumlaut
ENCODING 337
SWIDTH 517 0
DWIDTH 25 0
BBX 22 37 2 0
BITMAP
001000
007838
00FC7C
00FCFC
01F9FC
03F1F8
07F3F0
0FE7E0
0FCFC0
0F8F80
070700
000000
000000
00FC00
03FF00
07FF80
1FFFC0
1FCFE0
3F03F0
7E01F0
7C01F0
F800F8
F800F8
F800F8
F800F8
F800F8
F800F8
F800F8
F801F0
F801F0
7C03E0
7E07E0
3FBFC0
3FFF80
1FFF00
07FE00
01F800
ENDCHAR
STARTCHAR OE
ENCODING 338
SWIDTH 1018 0
DWIDTH 49 0
BBX 46 33 2 0
BITMAP
001F81FFFFF8
007FF3FFFFFC
01FFFBFFFFFC
03FFFFFFFFF8
07FBFFE00000
0FC07FE00000
1F803FE00000
1F001FE00000
3E000FE00000
3E000FE00000
7C0007E00000
7C0007E00000
780007E00000
F80003E00000
F80003FFFFE0
F80003FFFFF0
F80003FFFFF0
F80003FFFFE0
F80007E00000
F80007E00000
F80007E00000
F8000FE00000
F8000FE00000
7C000FE00000
7C001FE00000
3E003FE00000
3F007FE00000
1F80FFE00000
1FF3FFE00000
0FFFFBFFFFF8
07FFF3FFFFFC
01FFC3FFFFFC
007F01FFFFF8
ENDCHAR
STARTCHAR oe
ENCODING 339
SWIDTH 829 0
DWIDTH 40 0
BBX 36 24 2 0
BITMAP
00FC00FC00
03FE03FF00
0FFF8FFF80
1FFFDFFFC0
1FDFDFCFE0
3F07FE03E0
7E03FC01F0
7C01F807F0
7801F81FE0
F801F87FC0
F800F0FF00
F800F3FC00
F000FFF800
F000FFE000
F801FFC000
F801FF0000
F803FC0000
7C03FC00E0
7E0FFE01F0
3FBFFFC7F0
3FFF9FFFE0
1FFF0FFFC0
07FE07FF80
03F800FC00
ENDCHAR
STARTCHAR Racute
ENCODING 340
SWIDTH 583 0
DWIDTH 28 0
BBX 23 45 4 0
BITMAP
000200
000780
001F80
003F80
007F80
00FF00
01FC00
03F800
01F000
01C000
000000
000000
FFF000
FFFE00
FFFFC0
FFFFE0
F1FFF0
F007F8
F001F8
F000FC
F0007C
F0007C
F0007C
F0007C
F0007C
F000FC
F001F8
F007F0
F07FF0
FFFFC0
FFFF80
FFFE00
FFFF00
FEFF80
F01FC0
F00FE0
F007F0
F003F8
F001F8
F000FC
F0007E
F0007E
F0003E
F0001E
E0000C
ENDCHAR
STARTCHAR racute
ENCODING 341
SWIDTH 403 0
DWIDTH 19 0
BBX 16 37 3 0
BITMAP
0020
0078
00F8
01F8
03F8
07F0
07E0
0FC0
1F80
0F00
0E00
0000
0000
707C
F9FE
FBFF
FFFF
FFDF
FF0F
FE0F
FC0E
FC00
F800
F800
F800
F800
F800
F800
F800
F800
F800
F800
F800
F800
F800
F800
7000
ENDCHAR
STARTCHAR Rcaron
ENCODING 344
SWIDTH 583 0
DWIDTH 28 0
BBX 23 44 4 0
BITMAP
040100
1E03C0
1F0FC0
1F9FC0
0FFF80
07FF00
03FE00
01FC00
00F800
006000
000000
FFF000
FFFE00
FFFFC0
FFFFE0
F1FFF0
F007F8
F001F8
F000FC
F0007C
F0007C
F0007C
F0007C
F0007C
F000FC
F001F8
F007F0
F07FF0
FFFFC0
FFFF80
FFFE00
FFFF00
FEFF80
F01FC0
F00FE0
F007F0
F003F8
F001F8
F000FC
F0007E
F0007E
F0003E
F0001E
E0000C
ENDCHAR
STARTCHAR rcaron
ENCODING 345
SWIDTH 403 0
DWIDTH 19 0
BBX 17 36 2 0
BITMAP
200400
F01E00
F83E00
FCFE00
7FFC00
3FF800
1FF000
0FE000
07C000
038000
000000
000000
383E00
7CFF00
7DFF80
7FFF80
7FEF80
7F8780
7F0780
7E0700
7E0000
7C0000
7C0000
7C0000
7C0000
7C0000
7C0000
7C0000
7C0000
7C0000
7C0000
7C0000
7C0000
7C0000
7C0000
380000
ENDCHAR
STARTCHAR Sacute
ENCODING 346
SWIDTH 546 0
DWIDTH 26 0
BBX 24 45 1 0
BITMAP
000040
0001E0
0003F0
0007F0
000FF0
003FE0
003F80
007F00
007C00
003800
000000
000000
007F80
03FFF0
07FFF8
0FFFFC
1FF3FE
3F007E
3E003E
3C001E
3C001E
3C000C
3E0000
3F0000
3FE000
1FF800
0FFF00
07FFC0
01FFF0
007FF8
000FFC
0001FE
00007E
00003E
20001E
F0001F
F8001E
F8003E
FC003E
7F00FC
3FE7FC
3FFFF8
0FFFF0
07FFC0
00FF00
ENDCHAR
STARTCHAR sacute
ENCODING 347
SWIDTH 425 0
DWIDTH 20 0
BBX 18 37 1 0
BITMAP
000400
001E00
003F00
003F00
007E00
00FC00
01FC00
03F800
03F000
03E000
01C000
000000
000000
03FC00
0FFF00
1FFF80
3FFF80
3F9FC0
3C07C0
7C07C0
3C07C0
3E0380
3F8000
1FF000
0FFE00
03FF00
007F80
000F80
7007C0
F807C0
F807C0
7C07C0
7F3F80
3FFF80
1FFF00
0FFE00
03F000
ENDCHAR
STARTCHAR Scircumflex
ENCODING 348
SWIDTH 546 0
DWIDTH 26 0
BBX 24 44 1 0
BITMAP
000400
001E00
003F00
007F80
00FFC0
01FFE0
03FFF0
07F1F8
07C0F0
038070
000000
007F80
03FFF0
07FFF8
0FFFFC
1FF3FE
3F007E
3E003E
3C001E
3C001E
3C000C
3E0000
3F0000
3FE000
1FF800
0FFF00
07FFC0
01FFF0
007FF8
000FFC
0001FE
00007E
00003E
20001E
F0001F
F8001E
F8003E
FC003E
7F00FC
3FE7FC
3FFFF8
0FFFF0
07FFC0
00FF00
ENDCHAR
STARTCHAR scircumflex
ENCODING 349
SWIDTH 425 0
DWIDTH 20 0
BBX 18 36 1 0
BITMAP
004000
00E000
03F000
07FC00
0FFE00
1FFF00
3FBF00
3F1F80
3E0F80
380700
000000
000000
03FC00
0FFF00
1FFF80
3FFF80
3F9FC0
3C07C0
7C07C0
3C07C0
3E0380
3F8000
1FF000
0FFE00
03FF00
007F80
000F80
7007C0
F807C0
F807C0
7C07C0
7F3F80
3FFF80
1FFF00
0FFE00
03F000
ENDCHAR
STARTCHAR Scedilla
ENCODING 350
SWIDTH 546 0
DWIDTH 26 0
BBX 24 43 1 -10
BITMAP
007F80
03FFF0
07FFF8
0FFFFC
1FF3FE
3F007E
3E003E
3C001E
3C001E
3C000C
3E0000
3F0000
3FC000
1FF800
0FFF00
07FFC0
01FFF0
007FF8
000FFC
0001FE
00007E
00003E
20001E
F0001F
F8001E
F8003E
FC003E
7F00FC
7FE7FC
3FFFF8
1FFFF0
07FFC0
01FF00
001C00
001E00
003F80
001FC0
0001C0
0001C0
0031C0
003FC0
003F80
001F00
ENDCHAR
STARTCHAR scedilla
ENCODING 351
SWIDTH 425 0
DWIDTH 20 0
BBX 18 34 1 -10
BITMAP
03FC00
0FFF00
1FFF80
3FFF80
3F9FC0
3C07C0
7C03C0
3C07C0
3E0380
3F8000
1FF000
0FFC00
03FF00
00FF80
001F80
6007C0
F807C0
F807C0
FC07C0
7E0F80
7FFF80
3FFF00
1FFE00
07FC00
00E000
00E000
00FC00
01FE00
000E00
000E00
018E00
03FE00
01FC00
00F800
ENDCHAR
STARTCHAR Scaron
ENCODING 352
SWIDTH 546 0
DWIDTH 26 0
BBX 24 44 1 0
BITMAP
010020
03C078
03E1F8
03F3F8
03FFF0
01FFE0
00FFC0
007F80
003E00
001C00
000000
007F80
03FFF0
07FFF8
0FFFFC
1FF3FE
3F007E
3E003E
3C001E
3C001E
3C000C
3E0000
3F0000
3FE000
1FF800
0FFF00
07FFC0
01FFF0
007FF8
000FFC
0001FE
00007E
00003E
20001E
F0001F
F8001E
F8003E
FC003E
7F00FC
3FE7FC
3FFFF8
0FFFF0
07FFC0
00FF00
ENDCHAR
STARTCHAR scaron
ENCODING 353
SWIDTH 425 0
DWIDTH 20 0
BBX 18 36 1 0
BITMAP
100200
3C0F00
3E1F80
3F3F80
3FFF00
1FFE00
0FFC00
07F000
03E000
01C000
000000
000000
03FC00
0FFF00
1FFF80
3FFF80
3F9FC0
3C07C0
7C07C0
3C07C0
3E0380
3F8000
1FF000
0FFE00
03FF00
007F80
000F80
7007C0
F807C0
F807C0
7C07C0
7F3F80
3FFF80
1FFF00
0FFE00
03F000
ENDCHAR
STARTCHAR uni021A
ENCODING 355
SWIDTH 524 0
DWIDTH 25 0
BBX 25 44 0 -11
BITMAP
7FFFFF00
FFFFFF80
FFFFFF80
7FFFFF00
003E0000
003E0000
003E0000
003E0000
003E0000
003E0000
003E0000
003E0000
003E0000
003E0000
003E0000
003E0000
003E0000
003E0000
003E0000
003E0000
003E0000
003E0000
003E0000
003E0000
003E0000
003E0000
003E0000
003E0000
003E0000
003E0000
003E0000
003E0000
001C0000
00000000
001C0000
003E0000
003E0000
003E0000
003E0000
003C0000
007C0000
00780000
00780000
00300000
ENDCHAR
STARTCHAR Tcaron
ENCODING 356
SWIDTH 524 0
DWIDTH 25 0
BBX 25 44 0 0
BITMAP
01002000
03C0F000
07E1F800
03F3F800
03FFF000
01FFE000
00FF8000
007F0000
003E0000
001C0000
00000000
7FFFFF00
FFFFFF80
FFFFFF80
7FFFFF00
003E0000
003E0000
003E0000
003E0000
003E0000
003E0000
003E0000
003E0000
003E0000
003E0000
003E0000
003E0000
003E0000
003E0000
003E0000
003E0000
003E0000
003E0000
003E0000
003E0000
003E0000
003E0000
003E0000
003E0000
003E0000
003E0000
003E0000
003E0000
001C0000
ENDCHAR
STARTCHAR tcaron
ENCODING 357
SWIDTH 342 0
DWIDTH 16 0
BBX 20 38 -1 0
BITMAP
0000E0
0001F0
0001F0
0001F0
0001F0
0001E0
01C1E0
03E3E0
03E3C0
03E1C0
03E000
03E000
03E000
03E000
7FFF00
FFFF80
FFFF80
7FFF80
03E000
03E000
03E000
03E000
03E000
03E000
03E000
03E000
03E000
03E000
03E000
03E000
03E000
03E000
03E000
03E000
03E000
03E000
03E000
01C000
ENDCHAR
STARTCHAR Ubreve
ENCODING 364
SWIDTH 669 0
DWIDTH 32 0
BBX 28 44 2 0
BITMAP
00000800
01C01C00
01E03C00
01F03C00
01FCFC00
00FFF800
007FF800
003FE000
000FC000
00000000
00000000
780001E0
780001E0
780001E0
780001E0
780001E0
780001F0
780001F0
780001F0
F80001F0
F80001F0
F80001F0
780001F0
780001F0
780001F0
780001F0
780001E0
780001E0
7C0003E0
7C0003E0
7C0003E0
7C0003E0
7C0003E0
3E0003E0
3E0007C0
3E0007C0
1F000FC0
1F801F80
0FC03F80
0FF9FF00
07FFFE00
03FFFC00
00FFF000
003FC000
ENDCHAR
STARTCHAR ubreve
ENCODING 365
SWIDTH 518 0
DWIDTH 25 0
BBX 19 36 3 0
BITMAP
000100
380380
3C0780
3C0F80
3F9F80
1FFF00
1FFE00
07FC00
03F000
000000
000000
000000
7001C0
F803C0
F803E0
F803E0
F803E0
F803E0
F003E0
F003E0
F003E0
F003E0
F003E0
F003E0
F003E0
F003E0
F003E0
F003E0
F803E0
F807E0
F81FE0
7EFFE0
7FFFE0
3FFBE0
3FF3C0
0FC1C0
ENDCHAR
STARTCHAR Uring
ENCODING 366
SWIDTH 669 0
DWIDTH 32 0
BBX 28 45 2 0
BITMAP
000FC000
003FE000
007FF000
007FF800
00F87800
00F07800
00FDF800
007FF000
007FF000
003FE000
000F8000
00000000
780001E0
780001E0
780001E0
780001E0
780001E0
780001F0
780001F0
780001F0
F80001F0
F80001F0
F80001F0
780001F0
780001F0
780001F0
780001F0
780001E0
780001E0
7C0003E0
7C0003E0
7C0003E0
7C0003E0
7C0003E0
3E0003E0
3E0007C0
3E0007C0
1F000FC0
1F801F80
0FC03F80
0FF9FF00
07FFFE00
03FFFC00
00FFF000
003FC000
ENDCHAR
STARTCHAR uring
ENCODING 367
SWIDTH 518 0
DWIDTH 25 0
BBX 19 36 3 0
BITMAP
03F800
07FC00
0FFE00
0FFE00
1F1F00
1E0F00
1FBE00
0FFE00
0FFC00
07F800
03F000
000000
7001C0
F803C0
F803E0
F803E0
F803E0
F803E0
F003E0
F003E0
F003E0
F003E0
F003E0
F003E0
F003E0
F003E0
F003E0
F003E0
F803E0
F807E0
F81FE0
7EFFE0
7FFFE0
3FFBE0
3FF3C0
0FC1C0
ENDCHAR
STARTCHAR Uhungarumlaut
ENCODING 368
SWIDTH 669 0
DWIDTH 32 0
BBX 28 46 2 0
BITMAP
00010040
0003C0F0
0007C3F0
001FC7F0
003FCFF0
007F9FE0
00FF3F80
00FC3F00
00F83E00
00603800
00000000
00000000
00000000
780001E0
780001E0
780001E0
780001E0
780001E0
780001F0
780001F0
780001F0
F80001F0
F80001F0
F80001F0
780001F0
780001F0
780001F0
780001F0
780001E0
780001E0
7C0003E0
7C0003E0
7C0003E0
7C0003E0
7C0003E0
3E0003E0
3E0007C0
3E0007C0
1F000FC0
1F801F80
0FC03F80
0FF9FF00
07FFFE00
03FFFC00
00FFF000
003FC000
ENDCHAR
STARTCHAR uhungarumlaut
ENCODING 369
SWIDTH 518 0
DWIDTH 25 0
BBX 21 37 3 0
BITMAP
004000
00F070
01F0F8
03F1F8
07F3F8
0FE7F0
0FCFE0
1F9FC0
1F1F80
1E1E00
1C1C00
000000
000000
7001C0
F803C0
F803E0
F803E0
F803E0
F803E0
F003E0
F003E0
F003E0
F003E0
F003E0
F003E0
F003E0
F003E0
F003E0
F003E0
F803E0
F807E0
F81FE0
7EFFE0
7FFFE0
3FFBE0
3FF3C0
0FC1C0
ENDCHAR
STARTCHAR Ydieresis
ENCODING 376
SWIDTH 582 0
DWIDTH 28 0
BBX 28 42 0 0
BITMAP
00F07000
01F9F800
03F9FC00
03F9F800
01F1F800
00E0F000
00000000
00000000
00000000
700000E0
F80001F0
F80001F0
FC0003F0
7C0003E0
3E0007E0
3F000FC0
1F000F80
1F801F80
0F801F00
0FC03F00
07E03E00
03E07C00
03F0FC00
01F0F800
01F9F800
00F9F000
00FFF000
007FE000
003FC000
003FC000
001F8000
001F8000
001F0000
003E0000
007E0000
007C0000
00FC0000
00F80000
01F00000
01F00000
01E00000
00C00000
ENDCHAR
STARTCHAR Zacute
ENCODING 377
SWIDTH 575 0
DWIDTH 28 0
BBX 26 45 1 0
BITMAP
00002000
0000F000
0001F800
0003F800
0007F800
001FF000
001FC000
003F8000
003E0000
001C0000
00000000
00000000
7FFFFF80
7FFFFFC0
FFFFFFC0
7FFFFFC0
7FFFFF80
00001F80
00003F00
00007E00
0000FC00
0001F800
0001F800
0003F000
0007E000
000FC000
001FC000
001F8000
003F0000
007E0000
00FC0000
01FC0000
01F80000
03F00000
07E00000
0FE00000
0FC00000
1F800000
3F000000
7E000000
FE000000
FFFFFF80
FFFFFF80
FFFFFF80
FFFFFF00
ENDCHAR
STARTCHAR zacute
ENCODING 378
SWIDTH 429 0
DWIDTH 21 0
BBX 20 37 0 0
BITMAP
000200
000780
000F80
001FC0
003F80
003F00
007E00
00FC00
00F800
00F000
006000
000000
000000
3FFFE0
7FFFF0
7FFFF0
7FFFF0
0007E0
000FC0
001F80
001F80
003F00
007E00
00FC00
01FC00
01F800
03F000
07E000
0FC000
0FC000
1F8000
3F0000
7E0000
7FFFF0
FFFFF0
FFFFF0
7FFFE0
ENDCHAR
STARTCHAR Zdotaccent
ENCODING 379
SWIDTH 575 0
DWIDTH 28 0
BBX 26 40 1 0
BITMAP
000F0000
001F8000
003F8000
003F8000
001F8000
000F0000
00000000
7FFFFF80
7FFFFFC0
FFFFFFC0
7FFFFFC0
7FFFFF80
00001F80
00003F00
00007E00
0000FC00
0001F800
0001F800
0003F000
0007E000
000FC000
001FC000
001F8000
003F0000
007E0000
00FC0000
01FC0000
01F80000
03F00000
07E00000
0FE00000
0FC00000
1F800000
3F000000
7E000000
FE000000
FFFFFF80
FFFFFF80
FFFFFF80
FFFFFF00
ENDCHAR
STARTCHAR zdotaccent
ENCODING 380
SWIDTH 429 0
DWIDTH 21 0
BBX 20 33 0 0
BITMAP
007800
00FC00
00FC00
01FC00
00FC00
007800
000000
000000
000000
3FFFE0
7FFFF0
7FFFF0
7FFFF0
0007E0
000FC0
001F80
001F80
003F00
007E00
00FC00
01FC00
01F800
03F000
07E000
0FC000
0FC000
1F8000
3F0000
7E0000
7FFFF0
FFFFF0
FFFFF0
7FFFE0
ENDCHAR
STARTCHAR Zcaron
ENCODING 381
SWIDTH 575 0
DWIDTH 28 0
BBX 26 44 1 0
BITMAP
00801000
01E07800
01F0FC00
01F9FC00
01FFF800
00FFF000
007FE000
003FC000
001F0000
000E0000
00000000
7FFFFF80
7FFFFFC0
FFFFFFC0
7FFFFFC0
7FFFFF80
00001F80
00003F00
00007E00
0000FC00
0001F800
0001F800
0003F000
0007E000
000FC000
001FC000
001F8000
003F0000
007E0000
00FC0000
01FC0000
01F80000
03F00000
07E00000
0FE00000
0FC00000
1F800000
3F000000
7E000000
FE000000
FFFFFF80
FFFFFF80
FFFFFF80
FFFFFF00
ENDCHAR
STARTCHAR zcaron
ENCODING 382
SWIDTH 429 0
DWIDTH 21 0
BBX 20 36 0 0
BITMAP
040080
0F03C0
1F87E0
1FCFC0
0FFFC0
07FF80
03FE00
01FC00
00F800
007000
000000
000000
3FFFE0
7FFFF0
7FFFF0
7FFFF0
0007E0
000FC0
001F80
001F80
003F00
007E00
00FC00
01FC00
01F800
03F000
07E000
0FC000
0FC000
1F8000
3F0000
7E0000
7FFFF0
FFFFF0
FFFFF0
7FFFE0
ENDCHAR
STARTCHAR uni021A.dup1
ENCODING 538
SWIDTH 524 0
DWIDTH 25 0
BBX 25 44 0 -11
BITMAP
7FFFFF00
FFFFFF80
FFFFFF80
7FFFFF00
003E0000
003E0000
003E0000
003E0000
003E0000
003E0000
003E0000
003E0000
003E0000
003E0000
003E0000
003E0000
003E0000
003E0000
003E0000
003E0000
003E0000
003E0000
003E0000
003E0000
003E0000
003E0000
003E0000
003E0000
003E0000
003E0000
003E0000
003E0000
001C0000
00000000
001C0000
003E0000
003E0000
003E0000
003E0000
003C0000
007C0000
00780000
00780000
00300000
ENDCHAR
STARTCHAR uni021B
ENCODING 539
SWIDTH 328 0
DWIDTH 16 0
BBX 17 43 -1 -11
BITMAP
01C000
03E000
03E000
03E000
03E000
03E000
03E000
03E000
7FFF00
FFFF80
FFFF80
7FFF80
03E000
03E000
03E000
03E000
03E000
03E000
03E000
03E000
03E000
03E000
03E000
03E000
03E000
03E000
03E000
03E000
03E000
03E000
03E000
01C000
000000
01C000
03E000
03E000
03E000
03E000
03E000
03C000
07C000
078000
038000
ENDCHAR
STARTCHAR uni0237
ENCODING 567
SWIDTH 261 0
DWIDTH 13 0
BBX 13 32 -4 -8
BITMAP
0070
00F8
00F8
00F8
00F8
00F8
00F8
00F8
00F8
00F8
00F8
00F8
00F8
00F8
00F8
00F8
00F8
00F8
00F8
00F8
00F8
00F8
00F8
00F8
60F8
F0F8
F8F8
FDF0
7FF0
3FF0
1FE0
0F80
ENDCHAR
STARTCHAR circumflex
ENCODING 710
SWIDTH 317 0
DWIDTH 15 0
BBX 15 10 0 26
BITMAP
0100
03C0
07E0
0FF0
3FF8
7FFC
FEFE
FC7E
F83E
700C
ENDCHAR
STARTCHAR caron
ENCODING 711
SWIDTH 317 0
DWIDTH 15 0
BBX 15 10 0 26
BITMAP
2008
F01E
F83E
FCFE
7FFC
3FF8
1FF0
0FE0
07C0
0380
ENDCHAR
STARTCHAR breve
ENCODING 728
SWIDTH 323 0
DWIDTH 16 0
BBX 16 9 0 27
BITMAP
0004
600E
F00F
F81E
FE7E
7FFC
3FFC
1FF8
07E0
ENDCHAR
STARTCHAR dotaccent
ENCODING 729
SWIDTH 144 0
DWIDTH 7 0
BBX 7 6 0 27
BITMAP
38
7C
FE
FE
FC
78
ENDCHAR
STARTCHAR ring
ENCODING 730
SWIDTH 260 0
DWIDTH 12 0
BBX 12 11 0 25
BITMAP
1FC0
3FE0
7FF0
FFF0
F0F0
F070
F9F0
FFF0
7FE0
3FC0
1F00
ENDCHAR
STARTCHAR ogonek
ENCODING 731
SWIDTH 232 0
DWIDTH 11 0
BBX 11 13 0 -10
BITMAP
0600
1F00
3F00
7F00
7E00
F800
F800
F040
F9E0
FFE0
7FE0
3FC0
1F00
ENDCHAR
STARTCHAR tilde
ENCODING 732
SWIDTH 397 0
DWIDTH 19 0
BBX 17 9 1 27
BITMAP
000100
1F0380
3F8380
7FC380
7FE780
F3FF00
E1FF00
E0FE00
C07800
ENDCHAR
STARTCHAR hungarumlaut
ENCODING 733
SWIDTH 379 0
DWIDTH 18 0
BBX 18 11 0 26
BITMAP
010000
078380
0FC7C0
1FCFC0
1F9FC0
3F3F80
7E7F00
FC7E00
FCFC00
F8F800
707000
ENDCHAR
STARTCHAR gravecomb
ENCODING 768
SWIDTH 0 0
DWIDTH 0 0
BBX 10 11 -10 26
BITMAP
2000
7800
FC00
FC00
7E00
7F00
3F80
1FC0
0FC0
07C0
0380
ENDCHAR
STARTCHAR acutecomb
ENCODING 769
SWIDTH 0 0
DWIDTH 0 0
BBX 10 11 -10 26
BITMAP
0100
0780
07C0
0FC0
1FC0
3F80
7F00
7E00
FC00
F800
7000
ENDCHAR
STARTCHAR uni0302
ENCODING 770
SWIDTH 0 0
DWIDTH 0 0
BBX 15 10 -15 26
BITMAP
0100
03C0
07E0
1FF0
3FF8
7FFC
FEFE
FC7E
F83E
701C
ENDCHAR
STARTCHAR tildecomb
ENCODING 771
SWIDTH 0 0
DWIDTH 0 0
BBX 17 9 -18 27
BITMAP
000100
1F0380
3F8380
7FC780
FFE780
F3FF00
E1FF00
E0FE00
C07800
ENDCHAR
STARTCHAR uni0304
ENCODING 772
SWIDTH 0 0
DWIDTH 0 0
BBX 13 4 -13 28
BITMAP
FFF8
FFF8
FFF8
FFF0
ENDCHAR
STARTCHAR uni0306
ENCODING 774
SWIDTH 0 0
DWIDTH 0 0
BBX 16 9 -16 27
BITMAP
0002
700F
F00F
781F
7E3F
3FFE
3FFC
1FF8
07E0
ENDCHAR
STARTCHAR uni0307
ENCODING 775
SWIDTH 0 0
DWIDTH 0 0
BBX 7 6 -7 27
BITMAP
3C
7E
FE
FE
FC
78
ENDCHAR
STARTCHAR uni0308
ENCODING 776
SWIDTH 0 0
DWIDTH 0 0
BBX 15 6 -15 28
BITMAP
783C
FC7E
FCFE
FCFE
FC7E
783C
ENDCHAR
STARTCHAR uni030A
ENCODING 778
SWIDTH 0 0
DWIDTH 0 0
BBX 12 11 -12 25
BITMAP
1F80
7FE0
7FE0
FFF0
F0F0
E0F0
FBF0
FFE0
FFE0
7FC0
1F00
ENDCHAR
STARTCHAR uni030B
ENCODING 779
SWIDTH 0 0
DWIDTH 0 0
BBX 19 11 -21 26
BITMAP
010000
07C1C0
07C3C0
0FC7E0
1FCFC0
3F9FC0
3F3F80
7E7F00
FC7C00
787800
707000
ENDCHAR
STARTCHAR uni030C
ENCODING 780
SWIDTH 0 0
DWIDTH 0 0
BBX 15 10 -15 26
BITMAP
4008
F01E
F87E
FCFE
7FFC
7FF8
3FF0
1FE0
0FC0
0700
ENDCHAR
STARTCHAR uni0326
ENCODING 806
SWIDTH 0 0
DWIDTH 0 0
BBX 6 10 -6 -11
BITMAP
38
7C
7C
7C
7C
78
F8
F8
F0
70
ENDCHAR
STARTCHAR uni0327
ENCODING 807
SWIDTH 0 0
DWIDTH 0 0
BBX 9 12 -9 -10
BITMAP
3000
3000
3000
7400
7F00
7F00
0380
0380
6780
FF80
FF00
3C00
ENDCHAR
STARTCHAR uni0328
ENCODING 808
SWIDTH 0 0
DWIDTH 0 0
BBX 11 13 -11 -10
BITMAP
0E00
1F00
3F00
7F00
FC00
F800
F000
F080
FBE0
FFE0
7FE0
3FC0
1F00
ENDCHAR
STARTCHAR endash
ENCODING 8211
SWIDTH 622 0
DWIDTH 30 0
BBX 22 4 3 9
BITMAP
7FFFFC
FFFFFC
FFFFFC
7FFFF8
ENDCHAR
STARTCHAR emdash
ENCODING 8212
SWIDTH 806 0
DWIDTH 39 0
BBX 34 4 2 9
BITMAP
7FFFFFFFC0
FFFFFFFFC0
7FFFFFFFC0
7FFFFFFF80
ENDCHAR
STARTCHAR quoteleft
ENCODING 8216
SWIDTH 204 0
DWIDTH 10 0
BBX 6 10 3 24
BITMAP
38
78
7C
78
F8
F8
F8
F8
F8
70
ENDCHAR
STARTCHAR quoteright
ENCODING 8217
SWIDTH 204 0
DWIDTH 10 0
BBX 6 10 1 24
BITMAP
38
7C
7C
7C
7C
78
78
F8
F0
70
ENDCHAR
STARTCHAR quotesinglbase
ENCODING 8218
SWIDTH 287 0
DWIDTH 14 0
BBX 6 10 4 -5
BITMAP
38
78
FC
FC
78
F8
F8
F0
F0
60
ENDCHAR
STARTCHAR quotedblleft
ENCODING 8220
SWIDTH 371 0
DWIDTH 18 0
BBX 14 10 3 24
BITMAP
3838
787C
7C7C
7878
F8F8
F8F8
F8F8
F8F8
F8F8
7070
ENDCHAR
STARTCHAR quotedblright
ENCODING 8221
SWIDTH 369 0
DWIDTH 18 0
BBX 14 10 1 24
BITMAP
3838
7C7C
7C7C
7C7C
7C7C
7878
78F8
F8F8
F0F0
7070
ENDCHAR
STARTCHAR quotedblbase
ENCODING 8222
SWIDTH 452 0
DWIDTH 22 0
BBX 14 10 4 -5
BITMAP
3838
7878
FCFC
FCF8
7878
F8F8
F8F8
F0F0
F0F0
60E0
ENDCHAR
STARTCHAR bullet
ENCODING 8226
SWIDTH 335 0
DWIDTH 16 0
BBX 10 10 3 7
BITMAP
1E00
7F00
FF80
FF80
FFC0
FFC0
FF80
FF80
7F00
3E00
ENDCHAR
STARTCHAR ellipsis
ENCODING 8230
SWIDTH 666 0
DWIDTH 32 0
BBX 28 6 2 0
BITMAP
300700E0
780F01F0
F81F81F0
F81F83F0
F80F01E0
700E01E0
ENDCHAR
STARTCHAR guilsinglleft
ENCODING 8249
SWIDTH 347 0
DWIDTH 17 0
BBX 13 18 2 3
BITMAP
0070
00F8
01F8
03F8
07F0
0FE0
3F80
7F00
7E00
FC00
7E00
3F80
1FC0
0FE0
07F0
03F0
01F0
00E0
ENDCHAR
STARTCHAR guilsinglright
ENCODING 8250
SWIDTH 349 0
DWIDTH 17 0
BBX 12 18 2 3
BITMAP
7000
F800
FC00
FE00
7F00
3F80
1FC0
0FF0
03F0
03F0
07F0
0FE0
1FC0
3F80
7F00
7E00
7C00
7000
ENDCHAR
STARTCHAR fraction
ENCODING 8260
SWIDTH 157 0
DWIDTH 8 0
BBX 20 33 -6 0
BITMAP
000060
0000F0
0001F0
0001E0
0003E0
0003C0
0007C0
000780
000F80
001F00
001E00
003E00
003C00
007C00
007800
00F800
01F000
01F000
03E000
03C000
07C000
078000
0F8000
0F0000
1F0000
3E0000
3C0000
7C0000
780000
F80000
F00000
F00000
E00000
ENDCHAR
STARTCHAR uni2074
ENCODING 8308
SWIDTH 298 0
DWIDTH 14 0
BBX 14 19 0 19
BITMAP
0060
00F0
01F0
01F0
03F0
07F0
07F0
0FF0
1FF0
1EF0
3CF0
7CF0
7FFC
FFFC
7FFC
00F0
00F0
00F0
0060
ENDCHAR
STARTCHAR Euro
ENCODING 8364
SWIDTH 689 0
DWIDTH 33 0
BBX 26 32 3 0
BITMAP
0003F800
000FFE00
003FFF80
007FFF80
00FF3FC0
01F80780
01F00000
03E00000
07C00000
07C00000
FFFFC000
FFFFE000
FFFFE000
7FFFC000
1F000000
1F000000
1F000000
FFFFC000
FFFFE000
FFFFE000
7FFFC000
0F000000
0F800000
0F800000
07C00000
07E00000
03F00600
01FE3F00
00FFFF00
007FFF00
001FFE00
0007F800
ENDCHAR
STARTCHAR trademark
ENCODING 8482
SWIDTH 586 0
DWIDTH 28 0
BBX 25 12 1 20
BITMAP
FFC60C00
FFEF1E00
FFCF1E00
1E0F1E00
1E1FBF00
1E1FBF00
1E1FFF00
1E1DF780
1E3DF780
1E3DE380
1E38E380
0C38C380
ENDCHAR
STARTCHAR minus
ENCODING 8722
SWIDTH 450 0
DWIDTH 22 0
BBX 17 5 2 9
BITMAP
7FFF00
7FFF80
FFFF80
7FFF80
7FFF00
ENDCHAR
STARTCHAR uni2215
ENCODING 8725
SWIDTH 395 0
DWIDTH 19 0
BBX 15 46 2 -9
BITMAP
0004
000E
001E
001E
001E
003C
003C
003C
0038
0078
0078
0078
00F0
00F0
00F0
00F0
01E0
01E0
01E0
01C0
03C0
03C0
03C0
0780
0780
0780
0780
0F00
0F00
0F00
0E00
1E00
1E00
1E00
3C00
3C00
3C00
3C00
7800
7800
7800
7000
F000
F000
F000
6000
ENDCHAR
STARTCHAR .notdef
ENCODING -1
SWIDTH 526 0
DWIDTH 25 0
BBX 23 33 1 0
BITMAP
7FFFF8
FFFFFC
FFFFFE
FFFFFE
FC00FE
FE00FE
FE01FE
FF01FE
FF83FE
FF87DE
F7C7DE
F3CF9E
F3FF1E
F1FF1E
F1FE1E
F0FC1E
F07C1E
F0FC1E
F1FE1E
F1FE1E
F3FF1E
F7CF1E
F7CF9E
FF87DE
FF03DE
FF03FE
FE01FE
FC01FE
FC00FE
FFFFFE
FFFFFE
FFFFFC
7FFFF8
ENDCHAR
STARTCHAR NULL
ENCODING -1
SWIDTH 600 0
DWIDTH 29 0
BBX 1 1 0 0
BITMAP
00
ENDCHAR
STARTCHAR uni030C.alt
ENCODING -1
SWIDTH 0 0
DWIDTH 0 0
BBX 6 10 -6 24
BITMAP
38
7C
7C
7C
7C
78
F8
F8
F0
70
ENDCHAR
STARTCHAR uni0308.case
ENCODING -1
SWIDTH 0 0
DWIDTH 0 0
BBX 15 6 -15 36
BITMAP
783C
FC7E
FCFE
FCFE
FC7E
783C
ENDCHAR
STARTCHAR uni0307.case
ENCODING -1
SWIDTH 0 0
DWIDTH 0 0
BBX 7 6 -7 34
BITMAP
3C
7E
FE
FE
FC
78
ENDCHAR
STARTCHAR gravecomb.case
ENCODING -1
SWIDTH 0 0
DWIDTH 0 0
BBX 11 10 -11 35
BITMAP
2000
7800
FC00
FE00
7F80
3FC0
1FE0
07E0
03E0
01C0
ENDCHAR
STARTCHAR acutecomb.case
ENCODING -1
SWIDTH 0 0
DWIDTH 0 0
BBX 11 10 -11 35
BITMAP
0080
03C0
07E0
0FE0
1FE0
3FC0
7F00
FE00
F800
7000
ENDCHAR
STARTCHAR uni030B.case
ENCODING -1
SWIDTH 0 0
DWIDTH 0 0
BBX 21 10 -21 36
BITMAP
008020
01E0F0
07E1F8
0FE3F8
1FE7F8
3FCFF0
7F1FC0
FE3F80
7C3E00
701C00
ENDCHAR
STARTCHAR uni0302.case
ENCODING -1
SWIDTH 0 0
DWIDTH 0 0
BBX 15 10 -15 34
BITMAP
0100
03C0
07E0
1FF0
3FF8
7FFC
FEFE
FC7E
F83E
701C
ENDCHAR
STARTCHAR uni030C.case
ENCODING -1
SWIDTH 0 0
DWIDTH 0 0
BBX 15 10 -15 34
BITMAP
4008
F01E
F87E
FCFE
7FFC
7FF8
3FF0
1FE0
0FC0
0700
ENDCHAR
STARTCHAR uni0306.case
ENCODING -1
SWIDTH 0 0
DWIDTH 0 0
BBX 16 9 -16 35
BITMAP
0002
700F
F00F
781F
7E3F
3FFE
3FFC
1FF8
07E0
ENDCHAR
STARTCHAR uni030A.case
ENCODING -1
SWIDTH 0 0
DWIDTH 0 0
BBX 12 11 -12 34
BITMAP
1F80
7FE0
7FE0
FFF0
F0F0
E0F0
FBF0
FFE0
FFE0
7FC0
1F00
ENDCHAR
STARTCHAR tildecomb.case
ENCODING -1
SWIDTH 0 0
DWIDTH 0 0
BBX 17 9 -18 35
BITMAP
000100
1F0380
3F8380
7FC780
FFE780
F3FF00
E1FF00
E0FE00
C07800
ENDCHAR
STARTCHAR uni0304.case
ENCODING -1
SWIDTH 0 0
DWIDTH 0 0
BBX 13 4 -13 36
BITMAP
FFF8
FFF8
FFF8
FFF0
ENDCHAR
STARTCHAR uni0327.case
ENCODING -1
SWIDTH 0 0
DWIDTH 0 0
BBX 9 12 -9 -10
BITMAP
3000
3000
3000
7400
7F00
7F00
0380
0380
6780
FF80
FF00
3C00
ENDCHAR
STARTCHAR uni0328.case
ENCODING -1
SWIDTH 0 0
DWIDTH 0 0
BBX 11 14 -11 -10
BITMAP
0200
0F00
1F80
3F00
7E00
FC00
F800
F000
F040
FBE0
FFE0
7FE0
3FC0
1F00
ENDCHAR
ENDFONT
